<mxfile host="app.diagrams.net" modified="2021-09-22T03:37:57.667Z" agent="5.0 (Windows)" etag="yF8XWED_A6-h6JMx1IpX" version="15.2.9" type="github">
  <diagram id="7hQzBCkBdU_H9w4rOh0N" name="第 1 页">
    <mxGraphModel dx="1711" dy="871" grid="1" gridSize="10" guides="1" tooltips="1" connect="1" arrows="1" fold="1" page="1" pageScale="1" pageWidth="5000" pageHeight="1000" math="0" shadow="0">
      <root>
        <mxCell id="0" />
        <mxCell id="1" parent="0" />
        <mxCell id="VgWYN8n7LNtqtZWlq0ul-238" value="" style="group" parent="1" vertex="1" connectable="0">
          <mxGeometry x="9310" y="542" width="1070" height="1642" as="geometry" />
        </mxCell>
        <mxCell id="VgWYN8n7LNtqtZWlq0ul-53" value="开始" style="strokeWidth=2;html=1;shape=mxgraph.flowchart.terminator;whiteSpace=wrap;fontSize=18;" parent="VgWYN8n7LNtqtZWlq0ul-238" vertex="1">
          <mxGeometry x="-5712.5" y="-242" width="100" height="60" as="geometry" />
        </mxCell>
        <mxCell id="VgWYN8n7LNtqtZWlq0ul-122" value="j=0" style="rounded=0;whiteSpace=wrap;html=1;fontSize=18;" parent="VgWYN8n7LNtqtZWlq0ul-238" vertex="1">
          <mxGeometry x="-5722.5" y="-132" width="120" height="60" as="geometry" />
        </mxCell>
        <mxCell id="VgWYN8n7LNtqtZWlq0ul-154" style="edgeStyle=orthogonalEdgeStyle;rounded=0;orthogonalLoop=1;jettySize=auto;html=1;entryX=0.5;entryY=0;entryDx=0;entryDy=0;fontSize=18;" parent="VgWYN8n7LNtqtZWlq0ul-238" source="VgWYN8n7LNtqtZWlq0ul-53" target="VgWYN8n7LNtqtZWlq0ul-122" edge="1">
          <mxGeometry relative="1" as="geometry" />
        </mxCell>
        <mxCell id="VgWYN8n7LNtqtZWlq0ul-131" value="&lt;div&gt;LocalParkingSport[j].ObjType == 0&lt;/div&gt;&lt;div&gt;该库位没有障碍物&lt;br&gt;&lt;/div&gt;" style="rhombus;whiteSpace=wrap;html=1;fontSize=18;" parent="VgWYN8n7LNtqtZWlq0ul-238" vertex="1">
          <mxGeometry x="-5827.5" y="288" width="330" height="150" as="geometry" />
        </mxCell>
        <mxCell id="VgWYN8n7LNtqtZWlq0ul-139" style="edgeStyle=orthogonalEdgeStyle;rounded=0;orthogonalLoop=1;jettySize=auto;html=1;entryX=0.5;entryY=0;entryDx=0;entryDy=0;fontSize=18;" parent="VgWYN8n7LNtqtZWlq0ul-238" source="VgWYN8n7LNtqtZWlq0ul-137" target="VgWYN8n7LNtqtZWlq0ul-131" edge="1">
          <mxGeometry relative="1" as="geometry" />
        </mxCell>
        <mxCell id="VgWYN8n7LNtqtZWlq0ul-137" value="j &amp;lt;13" style="rhombus;whiteSpace=wrap;html=1;fontSize=18;" parent="VgWYN8n7LNtqtZWlq0ul-238" vertex="1">
          <mxGeometry x="-5827.5" y="88" width="330" height="150" as="geometry" />
        </mxCell>
        <mxCell id="VgWYN8n7LNtqtZWlq0ul-148" value="&lt;b&gt;&lt;font color=&quot;#FF3333&quot;&gt;真&lt;/font&gt;&lt;/b&gt;" style="text;html=1;strokeColor=none;fillColor=none;align=center;verticalAlign=middle;whiteSpace=wrap;rounded=0;fontSize=18;" parent="VgWYN8n7LNtqtZWlq0ul-238" vertex="1">
          <mxGeometry x="-5700" y="248" width="40" height="20" as="geometry" />
        </mxCell>
        <mxCell id="VgWYN8n7LNtqtZWlq0ul-158" style="edgeStyle=orthogonalEdgeStyle;rounded=0;orthogonalLoop=1;jettySize=auto;html=1;entryX=0.5;entryY=0;entryDx=0;entryDy=0;fontSize=18;" parent="VgWYN8n7LNtqtZWlq0ul-238" source="VgWYN8n7LNtqtZWlq0ul-156" target="VgWYN8n7LNtqtZWlq0ul-137" edge="1">
          <mxGeometry relative="1" as="geometry" />
        </mxCell>
        <mxCell id="VgWYN8n7LNtqtZWlq0ul-156" value="j = j+1" style="rounded=0;whiteSpace=wrap;html=1;fontSize=18;" parent="VgWYN8n7LNtqtZWlq0ul-238" vertex="1">
          <mxGeometry x="-5722.49" y="-12" width="120" height="60" as="geometry" />
        </mxCell>
        <mxCell id="VgWYN8n7LNtqtZWlq0ul-237" value="" style="edgeStyle=orthogonalEdgeStyle;rounded=0;orthogonalLoop=1;jettySize=auto;html=1;fontSize=18;" parent="VgWYN8n7LNtqtZWlq0ul-238" source="VgWYN8n7LNtqtZWlq0ul-122" target="VgWYN8n7LNtqtZWlq0ul-156" edge="1">
          <mxGeometry relative="1" as="geometry" />
        </mxCell>
        <mxCell id="VgWYN8n7LNtqtZWlq0ul-160" style="edgeStyle=orthogonalEdgeStyle;rounded=0;orthogonalLoop=1;jettySize=auto;html=1;fontSize=18;" parent="VgWYN8n7LNtqtZWlq0ul-238" source="VgWYN8n7LNtqtZWlq0ul-131" edge="1">
          <mxGeometry x="-5910" y="-72" as="geometry">
            <mxPoint x="-5662" y="-42" as="targetPoint" />
            <Array as="points">
              <mxPoint x="-5420" y="363" />
              <mxPoint x="-5420" y="-42" />
              <mxPoint x="-5662" y="-42" />
            </Array>
          </mxGeometry>
        </mxCell>
        <mxCell id="VgWYN8n7LNtqtZWlq0ul-150" value="&lt;b&gt;&lt;font color=&quot;#FF0000&quot;&gt;假&lt;/font&gt;&lt;/b&gt;" style="text;html=1;strokeColor=none;fillColor=none;align=center;verticalAlign=middle;whiteSpace=wrap;rounded=0;fontSize=18;" parent="VgWYN8n7LNtqtZWlq0ul-238" vertex="1">
          <mxGeometry x="-5460" y="208" width="40" height="20" as="geometry" />
        </mxCell>
        <mxCell id="VgWYN8n7LNtqtZWlq0ul-218" value="&lt;b&gt;&lt;font color=&quot;#FF0000&quot;&gt;假&lt;/font&gt;&lt;/b&gt;" style="text;html=1;strokeColor=none;fillColor=none;align=center;verticalAlign=middle;whiteSpace=wrap;rounded=0;fontSize=18;" parent="VgWYN8n7LNtqtZWlq0ul-238" vertex="1">
          <mxGeometry x="-5890" y="218" width="40" height="80" as="geometry" />
        </mxCell>
        <mxCell id="37CJagWb4j1WNpY-bCI--22" value="&lt;div&gt;&lt;font style=&quot;font-size: 20px&quot;&gt;判断每一个本地视觉库位是否需要进行障碍物检测以及使用哪些传感器对该库位进行障碍物检测&lt;/font&gt;&lt;/div&gt;" style="text;html=1;strokeColor=none;fillColor=none;align=center;verticalAlign=middle;whiteSpace=wrap;rounded=0;" parent="1" vertex="1">
          <mxGeometry x="3240" y="180" width="1160" height="142" as="geometry" />
        </mxCell>
        <mxCell id="leuu1m-iNAbnX1D4mWZV-53" value="使用两个超声波雷达，对未检测到障碍物的库位每一次循环都进行障碍物检测" style="text;html=1;align=center;verticalAlign=middle;whiteSpace=wrap;rounded=0;fontSize=18;" parent="1" vertex="1">
          <mxGeometry x="14570" y="492" width="660" height="569" as="geometry" />
        </mxCell>
        <mxCell id="jrK2h-31VooN953HkJox-1" value="本地库位" style="swimlane;fontStyle=0;childLayout=stackLayout;horizontal=1;startSize=40;horizontalStack=0;resizeParent=1;resizeParentMax=0;resizeLast=0;collapsible=1;marginBottom=0;fontSize=18;fillColor=#a0522d;strokeColor=#6D1F00;fontColor=#ffffff;" parent="1" vertex="1">
          <mxGeometry x="600" y="200" width="400" height="378" as="geometry" />
        </mxCell>
        <mxCell id="jrK2h-31VooN953HkJox-3" value="两角点" style="text;strokeColor=#666666;fillColor=#f5f5f5;align=left;verticalAlign=top;spacingLeft=4;spacingRight=4;overflow=hidden;rotatable=0;points=[[0,0.5],[1,0.5]];portConstraint=eastwest;gradientColor=#b3b3b3;" parent="jrK2h-31VooN953HkJox-1" vertex="1">
          <mxGeometry y="40" width="400" height="26" as="geometry" />
        </mxCell>
        <mxCell id="jrK2h-31VooN953HkJox-7" value="中心点(质心)" style="text;strokeColor=#666666;fillColor=#f5f5f5;align=left;verticalAlign=top;spacingLeft=4;spacingRight=4;overflow=hidden;rotatable=0;points=[[0,0.5],[1,0.5]];portConstraint=eastwest;gradientColor=#b3b3b3;" parent="jrK2h-31VooN953HkJox-1" vertex="1">
          <mxGeometry y="66" width="400" height="26" as="geometry" />
        </mxCell>
        <mxCell id="jrK2h-31VooN953HkJox-8" value="库位方位角" style="text;strokeColor=#666666;fillColor=#f5f5f5;align=left;verticalAlign=top;spacingLeft=4;spacingRight=4;overflow=hidden;rotatable=0;points=[[0,0.5],[1,0.5]];portConstraint=eastwest;gradientColor=#b3b3b3;" parent="jrK2h-31VooN953HkJox-1" vertex="1">
          <mxGeometry y="92" width="400" height="26" as="geometry" />
        </mxCell>
        <mxCell id="jrK2h-31VooN953HkJox-9" value="尺寸(宽度和深度)" style="text;strokeColor=#666666;fillColor=#f5f5f5;align=left;verticalAlign=top;spacingLeft=4;spacingRight=4;overflow=hidden;rotatable=0;points=[[0,0.5],[1,0.5]];portConstraint=eastwest;gradientColor=#b3b3b3;" parent="jrK2h-31VooN953HkJox-1" vertex="1">
          <mxGeometry y="118" width="400" height="26" as="geometry" />
        </mxCell>
        <mxCell id="jrK2h-31VooN953HkJox-10" value="库位类型(平行/垂直/斜)" style="text;strokeColor=#666666;fillColor=#f5f5f5;align=left;verticalAlign=top;spacingLeft=4;spacingRight=4;overflow=hidden;rotatable=0;points=[[0,0.5],[1,0.5]];portConstraint=eastwest;gradientColor=#b3b3b3;" parent="jrK2h-31VooN953HkJox-1" vertex="1">
          <mxGeometry y="144" width="400" height="26" as="geometry" />
        </mxCell>
        <mxCell id="jrK2h-31VooN953HkJox-11" value="库位余车辆的位置关系(左/右)" style="text;strokeColor=#666666;fillColor=#f5f5f5;align=left;verticalAlign=top;spacingLeft=4;spacingRight=4;overflow=hidden;rotatable=0;points=[[0,0.5],[1,0.5]];portConstraint=eastwest;gradientColor=#b3b3b3;" parent="jrK2h-31VooN953HkJox-1" vertex="1">
          <mxGeometry y="170" width="400" height="26" as="geometry" />
        </mxCell>
        <mxCell id="jrK2h-31VooN953HkJox-12" value="视觉测距的精度(可靠性)" style="text;strokeColor=#666666;fillColor=#f5f5f5;align=left;verticalAlign=top;spacingLeft=4;spacingRight=4;overflow=hidden;rotatable=0;points=[[0,0.5],[1,0.5]];portConstraint=eastwest;gradientColor=#b3b3b3;" parent="jrK2h-31VooN953HkJox-1" vertex="1">
          <mxGeometry y="196" width="400" height="26" as="geometry" />
        </mxCell>
        <mxCell id="jrK2h-31VooN953HkJox-13" value="是否有轮挡" style="text;strokeColor=#666666;fillColor=#f5f5f5;align=left;verticalAlign=top;spacingLeft=4;spacingRight=4;overflow=hidden;rotatable=0;points=[[0,0.5],[1,0.5]];portConstraint=eastwest;gradientColor=#b3b3b3;" parent="jrK2h-31VooN953HkJox-1" vertex="1">
          <mxGeometry y="222" width="400" height="26" as="geometry" />
        </mxCell>
        <mxCell id="jrK2h-31VooN953HkJox-14" value="轮挡在视觉探测位置戳坐标系下的坐标" style="text;strokeColor=#666666;fillColor=#f5f5f5;align=left;verticalAlign=top;spacingLeft=4;spacingRight=4;overflow=hidden;rotatable=0;points=[[0,0.5],[1,0.5]];portConstraint=eastwest;gradientColor=#b3b3b3;" parent="jrK2h-31VooN953HkJox-1" vertex="1">
          <mxGeometry y="248" width="400" height="26" as="geometry" />
        </mxCell>
        <mxCell id="jrK2h-31VooN953HkJox-16" value="重叠次数" style="text;strokeColor=#666666;fillColor=#f5f5f5;align=left;verticalAlign=top;spacingLeft=4;spacingRight=4;overflow=hidden;rotatable=0;points=[[0,0.5],[1,0.5]];portConstraint=eastwest;gradientColor=#b3b3b3;" parent="jrK2h-31VooN953HkJox-1" vertex="1">
          <mxGeometry y="274" width="400" height="26" as="geometry" />
        </mxCell>
        <mxCell id="9fVTEGnAfYZDbj1msMhv-1" value="歧义次数" style="text;strokeColor=#666666;fillColor=#f5f5f5;align=left;verticalAlign=top;spacingLeft=4;spacingRight=4;overflow=hidden;rotatable=0;points=[[0,0.5],[1,0.5]];portConstraint=eastwest;gradientColor=#b3b3b3;" parent="jrK2h-31VooN953HkJox-1" vertex="1">
          <mxGeometry y="300" width="400" height="26" as="geometry" />
        </mxCell>
        <mxCell id="jrK2h-31VooN953HkJox-4" value="歧义次数" style="text;strokeColor=#666666;fillColor=#f5f5f5;align=left;verticalAlign=top;spacingLeft=4;spacingRight=4;overflow=hidden;rotatable=0;points=[[0,0.5],[1,0.5]];portConstraint=eastwest;gradientColor=#b3b3b3;" parent="jrK2h-31VooN953HkJox-1" vertex="1">
          <mxGeometry y="326" width="400" height="26" as="geometry" />
        </mxCell>
        <mxCell id="jrK2h-31VooN953HkJox-15" value="ObjType：是否有障碍物(车辆、雪糕筒)，0没有障碍物，1有障碍物" style="text;strokeColor=#666666;fillColor=#f5f5f5;align=left;verticalAlign=top;spacingLeft=4;spacingRight=4;overflow=hidden;rotatable=0;points=[[0,0.5],[1,0.5]];portConstraint=eastwest;gradientColor=#b3b3b3;" parent="jrK2h-31VooN953HkJox-1" vertex="1">
          <mxGeometry y="352" width="400" height="26" as="geometry" />
        </mxCell>
        <mxCell id="jrK2h-31VooN953HkJox-17" value="视觉检测时本车位置戳" style="swimlane;fontStyle=0;childLayout=stackLayout;horizontal=1;startSize=40;horizontalStack=0;resizeParent=1;resizeParentMax=0;resizeLast=0;collapsible=1;marginBottom=0;fontSize=18;fillColor=#A0522D;strokeColor=#FFFFFF;fontColor=#FFFFFF;" parent="1" vertex="1">
          <mxGeometry x="600" y="1600" width="520" height="66" as="geometry" />
        </mxCell>
        <mxCell id="jrK2h-31VooN953HkJox-18" value="视觉探测时本车坐标系与朝向" style="text;strokeColor=#666666;fillColor=#f5f5f5;align=left;verticalAlign=top;spacingLeft=4;spacingRight=4;overflow=hidden;rotatable=0;points=[[0,0.5],[1,0.5]];portConstraint=eastwest;gradientColor=#b3b3b3;" parent="jrK2h-31VooN953HkJox-17" vertex="1">
          <mxGeometry y="40" width="520" height="26" as="geometry" />
        </mxCell>
        <mxCell id="jrK2h-31VooN953HkJox-21" value="当前时刻车辆位置戳" style="swimlane;fontStyle=0;childLayout=stackLayout;horizontal=1;startSize=40;horizontalStack=0;resizeParent=1;resizeParentMax=0;resizeLast=0;collapsible=1;marginBottom=0;fontSize=18;fillColor=#A0522D;strokeColor=#FFFFFF;fontColor=#FFFFFF;" parent="1" vertex="1">
          <mxGeometry x="600" y="1690" width="520" height="66" as="geometry" />
        </mxCell>
        <mxCell id="jrK2h-31VooN953HkJox-22" value="视觉探测时本车坐标系与朝向" style="text;strokeColor=#666666;fillColor=#f5f5f5;align=left;verticalAlign=top;spacingLeft=4;spacingRight=4;overflow=hidden;rotatable=0;points=[[0,0.5],[1,0.5]];portConstraint=eastwest;gradientColor=#b3b3b3;" parent="jrK2h-31VooN953HkJox-21" vertex="1">
          <mxGeometry y="40" width="520" height="26" as="geometry" />
        </mxCell>
        <mxCell id="jrK2h-31VooN953HkJox-23" value="触发信号" style="swimlane;fontStyle=0;childLayout=stackLayout;horizontal=1;startSize=40;horizontalStack=0;resizeParent=1;resizeParentMax=0;resizeLast=0;collapsible=1;marginBottom=0;fontSize=18;fillColor=#A0522D;strokeColor=#FFFFFF;fontColor=#FFFFFF;" parent="1" vertex="1">
          <mxGeometry x="600" y="1780" width="520" height="66" as="geometry" />
        </mxCell>
        <mxCell id="jrK2h-31VooN953HkJox-24" value="模块启动信号" style="text;strokeColor=#666666;fillColor=#f5f5f5;align=left;verticalAlign=top;spacingLeft=4;spacingRight=4;overflow=hidden;rotatable=0;points=[[0,0.5],[1,0.5]];portConstraint=eastwest;gradientColor=#b3b3b3;" parent="jrK2h-31VooN953HkJox-23" vertex="1">
          <mxGeometry y="40" width="520" height="26" as="geometry" />
        </mxCell>
        <mxCell id="leuu1m-iNAbnX1D4mWZV-41" value="传感器" style="swimlane;fontStyle=0;childLayout=stackLayout;horizontal=1;startSize=35;horizontalStack=0;resizeParent=1;resizeParentMax=0;resizeLast=0;collapsible=1;marginBottom=0;fontSize=18;fillColor=#A0522D;fontColor=#FFFFFF;" parent="1" vertex="1">
          <mxGeometry x="600" y="1865" width="520" height="139" as="geometry" />
        </mxCell>
        <mxCell id="leuu1m-iNAbnX1D4mWZV-42" value="左侧1号超声波(靠近车尾)" style="text;strokeColor=none;fillColor=none;align=left;verticalAlign=top;spacingLeft=4;spacingRight=4;overflow=hidden;rotatable=0;points=[[0,0.5],[1,0.5]];portConstraint=eastwest;" parent="leuu1m-iNAbnX1D4mWZV-41" vertex="1">
          <mxGeometry y="35" width="520" height="26" as="geometry" />
        </mxCell>
        <mxCell id="leuu1m-iNAbnX1D4mWZV-43" value="左侧2号超声波(靠近车头)" style="text;strokeColor=none;fillColor=none;align=left;verticalAlign=top;spacingLeft=4;spacingRight=4;overflow=hidden;rotatable=0;points=[[0,0.5],[1,0.5]];portConstraint=eastwest;" parent="leuu1m-iNAbnX1D4mWZV-41" vertex="1">
          <mxGeometry y="61" width="520" height="26" as="geometry" />
        </mxCell>
        <mxCell id="leuu1m-iNAbnX1D4mWZV-45" value="右侧1号超声波(靠近车尾)" style="text;strokeColor=none;fillColor=none;align=left;verticalAlign=top;spacingLeft=4;spacingRight=4;overflow=hidden;rotatable=0;points=[[0,0.5],[1,0.5]];portConstraint=eastwest;" parent="leuu1m-iNAbnX1D4mWZV-41" vertex="1">
          <mxGeometry y="87" width="520" height="26" as="geometry" />
        </mxCell>
        <mxCell id="leuu1m-iNAbnX1D4mWZV-44" value="右侧2号超声波(靠近车头)" style="text;strokeColor=none;fillColor=none;align=left;verticalAlign=top;spacingLeft=4;spacingRight=4;overflow=hidden;rotatable=0;points=[[0,0.5],[1,0.5]];portConstraint=eastwest;" parent="leuu1m-iNAbnX1D4mWZV-41" vertex="1">
          <mxGeometry y="113" width="520" height="26" as="geometry" />
        </mxCell>
        <mxCell id="leuu1m-iNAbnX1D4mWZV-49" value="&lt;b&gt;输入&lt;/b&gt;" style="text;html=1;align=center;verticalAlign=middle;whiteSpace=wrap;rounded=0;fontSize=18;" parent="1" vertex="1">
          <mxGeometry x="755" y="160" width="90" height="50" as="geometry" />
        </mxCell>
        <mxCell id="9fVTEGnAfYZDbj1msMhv-2" value="左侧1号超声波数据LeftRadarCQueueId1[250]" style="swimlane;fontStyle=0;childLayout=stackLayout;horizontal=1;startSize=40;horizontalStack=0;resizeParent=1;resizeParentMax=0;resizeLast=0;collapsible=1;marginBottom=0;fontSize=18;fillColor=#a0522d;strokeColor=#6D1F00;fontColor=#ffffff;" parent="1" vertex="1">
          <mxGeometry x="600" y="640" width="520" height="222" as="geometry" />
        </mxCell>
        <mxCell id="9fVTEGnAfYZDbj1msMhv-3" value="LeftRadarCQueueId1[250].x：循环队列/结构体数组成员，x为车辆在全局坐标系下X方向的值" style="text;strokeColor=#666666;fillColor=#f5f5f5;align=left;verticalAlign=top;spacingLeft=4;spacingRight=4;overflow=hidden;rotatable=0;points=[[0,0.5],[1,0.5]];portConstraint=eastwest;gradientColor=#b3b3b3;" parent="9fVTEGnAfYZDbj1msMhv-2" vertex="1">
          <mxGeometry y="40" width="520" height="26" as="geometry" />
        </mxCell>
        <mxCell id="9fVTEGnAfYZDbj1msMhv-4" value="LeftRadarCQueueId1[250].y：循环队列/结构体数组成员，y为车辆在全局坐标系下X方向的值" style="text;strokeColor=#666666;fillColor=#f5f5f5;align=left;verticalAlign=top;spacingLeft=4;spacingRight=4;overflow=hidden;rotatable=0;points=[[0,0.5],[1,0.5]];portConstraint=eastwest;gradientColor=#b3b3b3;" parent="9fVTEGnAfYZDbj1msMhv-2" vertex="1">
          <mxGeometry y="66" width="520" height="26" as="geometry" />
        </mxCell>
        <mxCell id="9fVTEGnAfYZDbj1msMhv-5" value="LeftRadarCQueueId1[250].q：循环队列/结构体数组成员，q为车辆在全局坐标系下X方向的值" style="text;strokeColor=#666666;fillColor=#f5f5f5;align=left;verticalAlign=top;spacingLeft=4;spacingRight=4;overflow=hidden;rotatable=0;points=[[0,0.5],[1,0.5]];portConstraint=eastwest;gradientColor=#b3b3b3;" parent="9fVTEGnAfYZDbj1msMhv-2" vertex="1">
          <mxGeometry y="92" width="520" height="26" as="geometry" />
        </mxCell>
        <mxCell id="9fVTEGnAfYZDbj1msMhv-48" value="LeftRadarCQueueId1[250].dim：循环队列/结构体数组成员，dim为超声波原始数据" style="text;strokeColor=#666666;fillColor=#f5f5f5;align=left;verticalAlign=top;spacingLeft=4;spacingRight=4;overflow=hidden;rotatable=0;points=[[0,0.5],[1,0.5]];portConstraint=eastwest;gradientColor=#b3b3b3;" parent="9fVTEGnAfYZDbj1msMhv-2" vertex="1">
          <mxGeometry y="118" width="520" height="26" as="geometry" />
        </mxCell>
        <mxCell id="9fVTEGnAfYZDbj1msMhv-6" value="LeftRadarCQueueId1[250].invalid：循环队列/结构体数组成员，1：该数据无效" style="text;strokeColor=#666666;fillColor=#f5f5f5;align=left;verticalAlign=top;spacingLeft=4;spacingRight=4;overflow=hidden;rotatable=0;points=[[0,0.5],[1,0.5]];portConstraint=eastwest;gradientColor=#b3b3b3;" parent="9fVTEGnAfYZDbj1msMhv-2" vertex="1">
          <mxGeometry y="144" width="520" height="26" as="geometry" />
        </mxCell>
        <mxCell id="9fVTEGnAfYZDbj1msMhv-7" value="front：循环队列队头(头删)" style="text;strokeColor=#666666;fillColor=#f5f5f5;align=left;verticalAlign=top;spacingLeft=4;spacingRight=4;overflow=hidden;rotatable=0;points=[[0,0.5],[1,0.5]];portConstraint=eastwest;gradientColor=#b3b3b3;" parent="9fVTEGnAfYZDbj1msMhv-2" vertex="1">
          <mxGeometry y="170" width="520" height="26" as="geometry" />
        </mxCell>
        <mxCell id="9fVTEGnAfYZDbj1msMhv-8" value="rear：循环队列队尾(尾删)" style="text;strokeColor=#666666;fillColor=#f5f5f5;align=left;verticalAlign=top;spacingLeft=4;spacingRight=4;overflow=hidden;rotatable=0;points=[[0,0.5],[1,0.5]];portConstraint=eastwest;gradientColor=#b3b3b3;" parent="9fVTEGnAfYZDbj1msMhv-2" vertex="1">
          <mxGeometry y="196" width="520" height="26" as="geometry" />
        </mxCell>
        <mxCell id="9fVTEGnAfYZDbj1msMhv-16" value="左侧2号超声波数据LeftRadarCQueueId2[250]" style="swimlane;fontStyle=0;childLayout=stackLayout;horizontal=1;startSize=40;horizontalStack=0;resizeParent=1;resizeParentMax=0;resizeLast=0;collapsible=1;marginBottom=0;fontSize=18;fillColor=#a0522d;strokeColor=#6D1F00;fontColor=#ffffff;" parent="1" vertex="1">
          <mxGeometry x="600" y="880" width="520" height="222" as="geometry" />
        </mxCell>
        <mxCell id="9fVTEGnAfYZDbj1msMhv-17" value="LeftRadarCQueueId2[250].x：循环队列/结构体数组成员，x为车辆在全局坐标系下X方向的值" style="text;strokeColor=#666666;fillColor=#f5f5f5;align=left;verticalAlign=top;spacingLeft=4;spacingRight=4;overflow=hidden;rotatable=0;points=[[0,0.5],[1,0.5]];portConstraint=eastwest;gradientColor=#b3b3b3;" parent="9fVTEGnAfYZDbj1msMhv-16" vertex="1">
          <mxGeometry y="40" width="520" height="26" as="geometry" />
        </mxCell>
        <mxCell id="9fVTEGnAfYZDbj1msMhv-18" value="LeftRadarCQueueId2[250].y：循环队列/结构体数组成员，y为车辆在全局坐标系下X方向的值" style="text;strokeColor=#666666;fillColor=#f5f5f5;align=left;verticalAlign=top;spacingLeft=4;spacingRight=4;overflow=hidden;rotatable=0;points=[[0,0.5],[1,0.5]];portConstraint=eastwest;gradientColor=#b3b3b3;" parent="9fVTEGnAfYZDbj1msMhv-16" vertex="1">
          <mxGeometry y="66" width="520" height="26" as="geometry" />
        </mxCell>
        <mxCell id="9fVTEGnAfYZDbj1msMhv-19" value="LeftRadarCQueueId2[250].q：循环队列/结构体数组成员，q为车辆在全局坐标系下X方向的值" style="text;strokeColor=#666666;fillColor=#f5f5f5;align=left;verticalAlign=top;spacingLeft=4;spacingRight=4;overflow=hidden;rotatable=0;points=[[0,0.5],[1,0.5]];portConstraint=eastwest;gradientColor=#b3b3b3;" parent="9fVTEGnAfYZDbj1msMhv-16" vertex="1">
          <mxGeometry y="92" width="520" height="26" as="geometry" />
        </mxCell>
        <mxCell id="9fVTEGnAfYZDbj1msMhv-47" value="LeftRadarCQueueId2[250].dim：循环队列/结构体数组成员，dim为超声波原始数据" style="text;strokeColor=#666666;fillColor=#f5f5f5;align=left;verticalAlign=top;spacingLeft=4;spacingRight=4;overflow=hidden;rotatable=0;points=[[0,0.5],[1,0.5]];portConstraint=eastwest;gradientColor=#b3b3b3;" parent="9fVTEGnAfYZDbj1msMhv-16" vertex="1">
          <mxGeometry y="118" width="520" height="26" as="geometry" />
        </mxCell>
        <mxCell id="9fVTEGnAfYZDbj1msMhv-20" value="LeftRadarCQueueId2[250].invalid：循环队列/结构体数组成员，1：该数据无效" style="text;strokeColor=#666666;fillColor=#f5f5f5;align=left;verticalAlign=top;spacingLeft=4;spacingRight=4;overflow=hidden;rotatable=0;points=[[0,0.5],[1,0.5]];portConstraint=eastwest;gradientColor=#b3b3b3;" parent="9fVTEGnAfYZDbj1msMhv-16" vertex="1">
          <mxGeometry y="144" width="520" height="26" as="geometry" />
        </mxCell>
        <mxCell id="9fVTEGnAfYZDbj1msMhv-21" value="front：循环队列队头(头删)" style="text;strokeColor=#666666;fillColor=#f5f5f5;align=left;verticalAlign=top;spacingLeft=4;spacingRight=4;overflow=hidden;rotatable=0;points=[[0,0.5],[1,0.5]];portConstraint=eastwest;gradientColor=#b3b3b3;" parent="9fVTEGnAfYZDbj1msMhv-16" vertex="1">
          <mxGeometry y="170" width="520" height="26" as="geometry" />
        </mxCell>
        <mxCell id="9fVTEGnAfYZDbj1msMhv-22" value="rear：循环队列队尾(尾删)" style="text;strokeColor=#666666;fillColor=#f5f5f5;align=left;verticalAlign=top;spacingLeft=4;spacingRight=4;overflow=hidden;rotatable=0;points=[[0,0.5],[1,0.5]];portConstraint=eastwest;gradientColor=#b3b3b3;" parent="9fVTEGnAfYZDbj1msMhv-16" vertex="1">
          <mxGeometry y="196" width="520" height="26" as="geometry" />
        </mxCell>
        <mxCell id="9fVTEGnAfYZDbj1msMhv-23" value="右侧1号超声波数据RightRadarCQueueId1[250]" style="swimlane;fontStyle=0;childLayout=stackLayout;horizontal=1;startSize=40;horizontalStack=0;resizeParent=1;resizeParentMax=0;resizeLast=0;collapsible=1;marginBottom=0;fontSize=18;fillColor=#a0522d;strokeColor=#6D1F00;fontColor=#ffffff;" parent="1" vertex="1">
          <mxGeometry x="600" y="1120" width="520" height="222" as="geometry" />
        </mxCell>
        <mxCell id="9fVTEGnAfYZDbj1msMhv-24" value="RightRadarCQueueId1[250].x：循环队列/结构体数组成员，x为车辆在全局坐标系下X方向的值" style="text;strokeColor=#666666;fillColor=#f5f5f5;align=left;verticalAlign=top;spacingLeft=4;spacingRight=4;overflow=hidden;rotatable=0;points=[[0,0.5],[1,0.5]];portConstraint=eastwest;gradientColor=#b3b3b3;" parent="9fVTEGnAfYZDbj1msMhv-23" vertex="1">
          <mxGeometry y="40" width="520" height="26" as="geometry" />
        </mxCell>
        <mxCell id="9fVTEGnAfYZDbj1msMhv-25" value="RightRadarCQueueId1[250].y：循环队列/结构体数组成员，y为车辆在全局坐标系下X方向的值" style="text;strokeColor=#666666;fillColor=#f5f5f5;align=left;verticalAlign=top;spacingLeft=4;spacingRight=4;overflow=hidden;rotatable=0;points=[[0,0.5],[1,0.5]];portConstraint=eastwest;gradientColor=#b3b3b3;" parent="9fVTEGnAfYZDbj1msMhv-23" vertex="1">
          <mxGeometry y="66" width="520" height="26" as="geometry" />
        </mxCell>
        <mxCell id="9fVTEGnAfYZDbj1msMhv-26" value="RightRadarCQueueId1[250].q：循环队列/结构体数组成员，q为车辆在全局坐标系下X方向的值" style="text;strokeColor=#666666;fillColor=#f5f5f5;align=left;verticalAlign=top;spacingLeft=4;spacingRight=4;overflow=hidden;rotatable=0;points=[[0,0.5],[1,0.5]];portConstraint=eastwest;gradientColor=#b3b3b3;" parent="9fVTEGnAfYZDbj1msMhv-23" vertex="1">
          <mxGeometry y="92" width="520" height="26" as="geometry" />
        </mxCell>
        <mxCell id="9fVTEGnAfYZDbj1msMhv-46" value="RightRadarCQueueId1[250].dim：循环队列/结构体数组成员，dim为超声波原始数据" style="text;strokeColor=#666666;fillColor=#f5f5f5;align=left;verticalAlign=top;spacingLeft=4;spacingRight=4;overflow=hidden;rotatable=0;points=[[0,0.5],[1,0.5]];portConstraint=eastwest;gradientColor=#b3b3b3;" parent="9fVTEGnAfYZDbj1msMhv-23" vertex="1">
          <mxGeometry y="118" width="520" height="26" as="geometry" />
        </mxCell>
        <mxCell id="9fVTEGnAfYZDbj1msMhv-27" value="RightRadarCQueueId1[250].invalid：循环队列/结构体数组成员，1：该数据无效" style="text;strokeColor=#666666;fillColor=#f5f5f5;align=left;verticalAlign=top;spacingLeft=4;spacingRight=4;overflow=hidden;rotatable=0;points=[[0,0.5],[1,0.5]];portConstraint=eastwest;gradientColor=#b3b3b3;" parent="9fVTEGnAfYZDbj1msMhv-23" vertex="1">
          <mxGeometry y="144" width="520" height="26" as="geometry" />
        </mxCell>
        <mxCell id="9fVTEGnAfYZDbj1msMhv-28" value="front：循环队列队头(头删)" style="text;strokeColor=#666666;fillColor=#f5f5f5;align=left;verticalAlign=top;spacingLeft=4;spacingRight=4;overflow=hidden;rotatable=0;points=[[0,0.5],[1,0.5]];portConstraint=eastwest;gradientColor=#b3b3b3;" parent="9fVTEGnAfYZDbj1msMhv-23" vertex="1">
          <mxGeometry y="170" width="520" height="26" as="geometry" />
        </mxCell>
        <mxCell id="9fVTEGnAfYZDbj1msMhv-29" value="rear：循环队列队尾(尾删)" style="text;strokeColor=#666666;fillColor=#f5f5f5;align=left;verticalAlign=top;spacingLeft=4;spacingRight=4;overflow=hidden;rotatable=0;points=[[0,0.5],[1,0.5]];portConstraint=eastwest;gradientColor=#b3b3b3;" parent="9fVTEGnAfYZDbj1msMhv-23" vertex="1">
          <mxGeometry y="196" width="520" height="26" as="geometry" />
        </mxCell>
        <mxCell id="9fVTEGnAfYZDbj1msMhv-30" value="右侧2号超声波数据RightRadarCQueueId2[250]" style="swimlane;fontStyle=0;childLayout=stackLayout;horizontal=1;startSize=40;horizontalStack=0;resizeParent=1;resizeParentMax=0;resizeLast=0;collapsible=1;marginBottom=0;fontSize=18;fillColor=#a0522d;strokeColor=#6D1F00;fontColor=#ffffff;" parent="1" vertex="1">
          <mxGeometry x="600" y="1360" width="520" height="222" as="geometry" />
        </mxCell>
        <mxCell id="9fVTEGnAfYZDbj1msMhv-31" value="RightRadarCQueueId2[250].x：循环队列/结构体数组成员，x为车辆在全局坐标系下X方向的值" style="text;strokeColor=#666666;fillColor=#f5f5f5;align=left;verticalAlign=top;spacingLeft=4;spacingRight=4;overflow=hidden;rotatable=0;points=[[0,0.5],[1,0.5]];portConstraint=eastwest;gradientColor=#b3b3b3;" parent="9fVTEGnAfYZDbj1msMhv-30" vertex="1">
          <mxGeometry y="40" width="520" height="26" as="geometry" />
        </mxCell>
        <mxCell id="9fVTEGnAfYZDbj1msMhv-32" value="RightRadarCQueueId2[250].y：循环队列/结构体数组成员，y为车辆在全局坐标系下X方向的值" style="text;strokeColor=#666666;fillColor=#f5f5f5;align=left;verticalAlign=top;spacingLeft=4;spacingRight=4;overflow=hidden;rotatable=0;points=[[0,0.5],[1,0.5]];portConstraint=eastwest;gradientColor=#b3b3b3;" parent="9fVTEGnAfYZDbj1msMhv-30" vertex="1">
          <mxGeometry y="66" width="520" height="26" as="geometry" />
        </mxCell>
        <mxCell id="9fVTEGnAfYZDbj1msMhv-33" value="RightRadarCQueueId2[250].q：循环队列/结构体数组成员，q为车辆在全局坐标系下X方向的值" style="text;strokeColor=#666666;fillColor=#f5f5f5;align=left;verticalAlign=top;spacingLeft=4;spacingRight=4;overflow=hidden;rotatable=0;points=[[0,0.5],[1,0.5]];portConstraint=eastwest;gradientColor=#b3b3b3;" parent="9fVTEGnAfYZDbj1msMhv-30" vertex="1">
          <mxGeometry y="92" width="520" height="26" as="geometry" />
        </mxCell>
        <mxCell id="9fVTEGnAfYZDbj1msMhv-37" value="RightRadarCQueueId2[250].dim：循环队列/结构体数组成员，dim为超声波原始数据" style="text;strokeColor=#666666;fillColor=#f5f5f5;align=left;verticalAlign=top;spacingLeft=4;spacingRight=4;overflow=hidden;rotatable=0;points=[[0,0.5],[1,0.5]];portConstraint=eastwest;gradientColor=#b3b3b3;" parent="9fVTEGnAfYZDbj1msMhv-30" vertex="1">
          <mxGeometry y="118" width="520" height="26" as="geometry" />
        </mxCell>
        <mxCell id="9fVTEGnAfYZDbj1msMhv-34" value="RightRadarCQueueId2[250].invalid：循环队列/结构体数组成员，1：该数据无效" style="text;strokeColor=#666666;fillColor=#f5f5f5;align=left;verticalAlign=top;spacingLeft=4;spacingRight=4;overflow=hidden;rotatable=0;points=[[0,0.5],[1,0.5]];portConstraint=eastwest;gradientColor=#b3b3b3;" parent="9fVTEGnAfYZDbj1msMhv-30" vertex="1">
          <mxGeometry y="144" width="520" height="26" as="geometry" />
        </mxCell>
        <mxCell id="9fVTEGnAfYZDbj1msMhv-35" value="front：循环队列队头(头删)" style="text;strokeColor=#666666;fillColor=#f5f5f5;align=left;verticalAlign=top;spacingLeft=4;spacingRight=4;overflow=hidden;rotatable=0;points=[[0,0.5],[1,0.5]];portConstraint=eastwest;gradientColor=#b3b3b3;" parent="9fVTEGnAfYZDbj1msMhv-30" vertex="1">
          <mxGeometry y="170" width="520" height="26" as="geometry" />
        </mxCell>
        <mxCell id="9fVTEGnAfYZDbj1msMhv-36" value="rear：循环队列队尾(尾删)" style="text;strokeColor=#666666;fillColor=#f5f5f5;align=left;verticalAlign=top;spacingLeft=4;spacingRight=4;overflow=hidden;rotatable=0;points=[[0,0.5],[1,0.5]];portConstraint=eastwest;gradientColor=#b3b3b3;" parent="9fVTEGnAfYZDbj1msMhv-30" vertex="1">
          <mxGeometry y="196" width="520" height="26" as="geometry" />
        </mxCell>
        <mxCell id="PpEH4e9-SN8Gfu_vvwJx-2" value="" style="group" vertex="1" connectable="0" parent="1">
          <mxGeometry x="1600" y="160" width="1370" height="1515" as="geometry" />
        </mxCell>
        <mxCell id="PpEH4e9-SN8Gfu_vvwJx-1" value="" style="rounded=0;whiteSpace=wrap;html=1;fillColor=#dae8fc;strokeColor=#6c8ebf;" vertex="1" parent="PpEH4e9-SN8Gfu_vvwJx-2">
          <mxGeometry width="1370" height="1515" as="geometry" />
        </mxCell>
        <mxCell id="qisY4M1OJLYSLH0alggS-1" value="雷达新数据入大小为250的左侧1号循环队列LeftRadarCQueueId1" style="strokeWidth=2;html=1;shape=mxgraph.flowchart.terminator;whiteSpace=wrap;fontSize=12;" parent="PpEH4e9-SN8Gfu_vvwJx-2" vertex="1">
          <mxGeometry x="655" y="90" width="300" height="136" as="geometry" />
        </mxCell>
        <mxCell id="qisY4M1OJLYSLH0alggS-4" value="(LeftRadarCQueueId1.rear + 1) % 251 + (LeftRadarCQueueId1.rear + 1) / 251 != LeftRadarCQueueId1.front&lt;br&gt;(队列未满)" style="rhombus;whiteSpace=wrap;html=1;fontSize=12;" parent="PpEH4e9-SN8Gfu_vvwJx-2" vertex="1">
          <mxGeometry x="640" y="268" width="330" height="210" as="geometry" />
        </mxCell>
        <mxCell id="qisY4M1OJLYSLH0alggS-17" style="edgeStyle=orthogonalEdgeStyle;rounded=0;orthogonalLoop=1;jettySize=auto;html=1;entryX=0.5;entryY=0;entryDx=0;entryDy=0;fontSize=12;" parent="PpEH4e9-SN8Gfu_vvwJx-2" source="qisY4M1OJLYSLH0alggS-1" target="qisY4M1OJLYSLH0alggS-4" edge="1">
          <mxGeometry x="160" y="45" as="geometry" />
        </mxCell>
        <mxCell id="qisY4M1OJLYSLH0alggS-5" value="LeftRadarCQueueId1.data[LeftRadarCQueueId1.rear] = e;&lt;br&gt;&lt;div&gt;LeftRadarCQueueId1.rear = ((LeftRadarCQueueId1.rear +1) % 251 ) + ( (LeftRadarCQueueId1.rear +1) / 251);&lt;/div&gt;&lt;div&gt;(雷达数据e从队尾入队列，队尾指针+1)&lt;br&gt;&lt;/div&gt;" style="rounded=0;whiteSpace=wrap;html=1;fontSize=12;" parent="PpEH4e9-SN8Gfu_vvwJx-2" vertex="1">
          <mxGeometry x="640" y="560" width="330" height="96" as="geometry" />
        </mxCell>
        <mxCell id="qisY4M1OJLYSLH0alggS-6" style="edgeStyle=orthogonalEdgeStyle;rounded=0;orthogonalLoop=1;jettySize=auto;html=1;entryX=0.5;entryY=0;entryDx=0;entryDy=0;fontSize=12;" parent="PpEH4e9-SN8Gfu_vvwJx-2" source="qisY4M1OJLYSLH0alggS-4" target="qisY4M1OJLYSLH0alggS-5" edge="1">
          <mxGeometry x="160" y="45" as="geometry" />
        </mxCell>
        <mxCell id="qisY4M1OJLYSLH0alggS-7" value="&lt;div&gt;LeftRadarCQueueId1.front&amp;nbsp; = (LeftRadarCQueueId1.front + 1) % 251 + (LeftRadarCQueueId1.front + 1) / 251;&lt;/div&gt;&lt;div&gt;(删除对头数据)&lt;br&gt;&lt;/div&gt;" style="rounded=0;whiteSpace=wrap;html=1;fontSize=12;" parent="PpEH4e9-SN8Gfu_vvwJx-2" vertex="1">
          <mxGeometry x="995" y="462" width="270" height="88" as="geometry" />
        </mxCell>
        <mxCell id="qisY4M1OJLYSLH0alggS-9" style="edgeStyle=orthogonalEdgeStyle;rounded=0;orthogonalLoop=1;jettySize=auto;html=1;exitX=1;exitY=0.5;exitDx=0;exitDy=0;entryX=0.556;entryY=0;entryDx=0;entryDy=0;entryPerimeter=0;fontSize=12;" parent="PpEH4e9-SN8Gfu_vvwJx-2" source="qisY4M1OJLYSLH0alggS-4" target="qisY4M1OJLYSLH0alggS-7" edge="1">
          <mxGeometry x="160" y="45" as="geometry" />
        </mxCell>
        <mxCell id="qisY4M1OJLYSLH0alggS-11" value="结束" style="strokeWidth=2;html=1;shape=mxgraph.flowchart.terminator;whiteSpace=wrap;fontSize=12;" parent="PpEH4e9-SN8Gfu_vvwJx-2" vertex="1">
          <mxGeometry x="755" y="686" width="100" height="60" as="geometry" />
        </mxCell>
        <mxCell id="qisY4M1OJLYSLH0alggS-12" style="edgeStyle=orthogonalEdgeStyle;rounded=0;orthogonalLoop=1;jettySize=auto;html=1;entryX=0.5;entryY=0;entryDx=0;entryDy=0;entryPerimeter=0;fontSize=12;" parent="PpEH4e9-SN8Gfu_vvwJx-2" source="qisY4M1OJLYSLH0alggS-5" target="qisY4M1OJLYSLH0alggS-11" edge="1">
          <mxGeometry x="160" y="45" as="geometry" />
        </mxCell>
        <mxCell id="qisY4M1OJLYSLH0alggS-15" value="&lt;b&gt;&lt;font color=&quot;#FF0000&quot;&gt;真&lt;/font&gt;&lt;/b&gt;" style="text;html=1;strokeColor=none;fillColor=none;align=center;verticalAlign=middle;whiteSpace=wrap;rounded=0;fontSize=12;" parent="PpEH4e9-SN8Gfu_vvwJx-2" vertex="1">
          <mxGeometry x="765" y="474" width="40" height="60" as="geometry" />
        </mxCell>
        <mxCell id="qisY4M1OJLYSLH0alggS-10" style="edgeStyle=orthogonalEdgeStyle;rounded=0;orthogonalLoop=1;jettySize=auto;html=1;exitX=0;exitY=0.5;exitDx=0;exitDy=0;fontSize=12;entryX=1;entryY=0.5;entryDx=0;entryDy=0;" parent="PpEH4e9-SN8Gfu_vvwJx-2" source="qisY4M1OJLYSLH0alggS-7" target="qisY4M1OJLYSLH0alggS-15" edge="1">
          <mxGeometry x="160" y="45" as="geometry">
            <mxPoint x="815" y="530" as="targetPoint" />
            <Array as="points">
              <mxPoint x="995" y="504" />
            </Array>
          </mxGeometry>
        </mxCell>
        <mxCell id="qisY4M1OJLYSLH0alggS-16" value="&lt;b&gt;&lt;font color=&quot;#FF0000&quot;&gt;假&lt;/font&gt;&lt;/b&gt;" style="text;html=1;strokeColor=none;fillColor=none;align=center;verticalAlign=middle;whiteSpace=wrap;rounded=0;fontSize=12;" parent="PpEH4e9-SN8Gfu_vvwJx-2" vertex="1">
          <mxGeometry x="1045" y="356" width="40" height="20" as="geometry" />
        </mxCell>
        <mxCell id="VgWYN8n7LNtqtZWlq0ul-8" value="雷达新数据入大小为250的左侧1号循环队列LeftRadarCQueueId1" style="rounded=0;whiteSpace=wrap;html=1;" parent="PpEH4e9-SN8Gfu_vvwJx-2" vertex="1">
          <mxGeometry x="243.1300000000001" y="400" width="136.25" height="60" as="geometry" />
        </mxCell>
        <mxCell id="VgWYN8n7LNtqtZWlq0ul-9" value="" style="edgeStyle=orthogonalEdgeStyle;rounded=0;orthogonalLoop=1;jettySize=auto;html=1;" parent="PpEH4e9-SN8Gfu_vvwJx-2" source="VgWYN8n7LNtqtZWlq0ul-4" target="VgWYN8n7LNtqtZWlq0ul-8" edge="1">
          <mxGeometry x="160" y="60" as="geometry" />
        </mxCell>
        <mxCell id="VgWYN8n7LNtqtZWlq0ul-22" value="雷达新数据入大小为250的右侧2号循环队列RightRadarCQueueId2" style="rounded=0;whiteSpace=wrap;html=1;" parent="PpEH4e9-SN8Gfu_vvwJx-2" vertex="1">
          <mxGeometry x="187.5" y="1255" width="142.5" height="60" as="geometry" />
        </mxCell>
        <mxCell id="VgWYN8n7LNtqtZWlq0ul-3" style="edgeStyle=orthogonalEdgeStyle;rounded=0;orthogonalLoop=1;jettySize=auto;html=1;" parent="PpEH4e9-SN8Gfu_vvwJx-2" target="VgWYN8n7LNtqtZWlq0ul-2" edge="1">
          <mxGeometry x="230" y="90" as="geometry">
            <mxPoint x="491.25" y="148" as="sourcePoint" />
          </mxGeometry>
        </mxCell>
        <mxCell id="VgWYN8n7LNtqtZWlq0ul-2" value="左侧1号超声波是否有新数据" style="rhombus;whiteSpace=wrap;html=1;" parent="PpEH4e9-SN8Gfu_vvwJx-2" vertex="1">
          <mxGeometry x="406.25" y="210" width="170" height="111" as="geometry" />
        </mxCell>
        <mxCell id="VgWYN8n7LNtqtZWlq0ul-4" value="将超声波数据转到全局坐标系(x,y,q,dim)" style="rounded=0;whiteSpace=wrap;html=1;" parent="PpEH4e9-SN8Gfu_vvwJx-2" vertex="1">
          <mxGeometry x="251.25" y="300" width="120" height="60" as="geometry" />
        </mxCell>
        <mxCell id="VgWYN8n7LNtqtZWlq0ul-5" style="edgeStyle=orthogonalEdgeStyle;rounded=0;orthogonalLoop=1;jettySize=auto;html=1;entryX=0.45;entryY=0.001;entryDx=0;entryDy=0;entryPerimeter=0;" parent="PpEH4e9-SN8Gfu_vvwJx-2" source="VgWYN8n7LNtqtZWlq0ul-2" target="VgWYN8n7LNtqtZWlq0ul-4" edge="1">
          <mxGeometry x="230" y="90" as="geometry" />
        </mxCell>
        <mxCell id="VgWYN8n7LNtqtZWlq0ul-16" style="edgeStyle=orthogonalEdgeStyle;rounded=0;orthogonalLoop=1;jettySize=auto;html=1;entryX=0.5;entryY=0;entryDx=0;entryDy=0;" parent="PpEH4e9-SN8Gfu_vvwJx-2" source="VgWYN8n7LNtqtZWlq0ul-2" target="9fVTEGnAfYZDbj1msMhv-40" edge="1">
          <mxGeometry x="230" y="90" as="geometry">
            <mxPoint x="491" y="465" as="targetPoint" />
          </mxGeometry>
        </mxCell>
        <mxCell id="9fVTEGnAfYZDbj1msMhv-61" style="edgeStyle=orthogonalEdgeStyle;rounded=0;orthogonalLoop=1;jettySize=auto;html=1;entryX=0.5;entryY=0;entryDx=0;entryDy=0;" parent="PpEH4e9-SN8Gfu_vvwJx-2" source="VgWYN8n7LNtqtZWlq0ul-21" target="VgWYN8n7LNtqtZWlq0ul-22" edge="1">
          <mxGeometry relative="1" as="geometry" />
        </mxCell>
        <mxCell id="VgWYN8n7LNtqtZWlq0ul-21" value="将超声波数据转到全局坐标系(x,y,q,dim)" style="rounded=0;whiteSpace=wrap;html=1;" parent="PpEH4e9-SN8Gfu_vvwJx-2" vertex="1">
          <mxGeometry x="198.75" y="1145" width="120" height="60" as="geometry" />
        </mxCell>
        <mxCell id="VgWYN8n7LNtqtZWlq0ul-23" value="右侧2号超声波是否有新数据" style="rhombus;whiteSpace=wrap;html=1;" parent="PpEH4e9-SN8Gfu_vvwJx-2" vertex="1">
          <mxGeometry x="406.25" y="1065" width="170" height="111" as="geometry" />
        </mxCell>
        <mxCell id="VgWYN8n7LNtqtZWlq0ul-19" style="edgeStyle=orthogonalEdgeStyle;rounded=0;orthogonalLoop=1;jettySize=auto;html=1;entryX=0.5;entryY=0;entryDx=0;entryDy=0;" parent="PpEH4e9-SN8Gfu_vvwJx-2" source="VgWYN8n7LNtqtZWlq0ul-23" target="VgWYN8n7LNtqtZWlq0ul-21" edge="1">
          <mxGeometry x="230" y="90" as="geometry" />
        </mxCell>
        <mxCell id="VgWYN8n7LNtqtZWlq0ul-36" value="&lt;font color=&quot;#FF0000&quot;&gt;真&lt;/font&gt;" style="text;html=1;strokeColor=none;fillColor=none;align=center;verticalAlign=middle;whiteSpace=wrap;rounded=0;" parent="PpEH4e9-SN8Gfu_vvwJx-2" vertex="1">
          <mxGeometry x="366.25" y="270" width="40" height="20" as="geometry" />
        </mxCell>
        <mxCell id="VgWYN8n7LNtqtZWlq0ul-37" value="&lt;font color=&quot;#FF0000&quot;&gt;假&lt;/font&gt;" style="text;html=1;strokeColor=none;fillColor=none;align=center;verticalAlign=middle;whiteSpace=wrap;rounded=0;" parent="PpEH4e9-SN8Gfu_vvwJx-2" vertex="1">
          <mxGeometry x="481.25" y="360" width="40" height="20" as="geometry" />
        </mxCell>
        <mxCell id="VgWYN8n7LNtqtZWlq0ul-43" value="结束" style="strokeWidth=2;html=1;shape=mxgraph.flowchart.terminator;whiteSpace=wrap;" parent="PpEH4e9-SN8Gfu_vvwJx-2" vertex="1">
          <mxGeometry x="441.25" y="1335" width="100" height="60" as="geometry" />
        </mxCell>
        <mxCell id="VgWYN8n7LNtqtZWlq0ul-46" value="开始" style="strokeWidth=2;html=1;shape=mxgraph.flowchart.terminator;whiteSpace=wrap;" parent="PpEH4e9-SN8Gfu_vvwJx-2" vertex="1">
          <mxGeometry x="441.25" y="90" width="100" height="60" as="geometry" />
        </mxCell>
        <mxCell id="VgWYN8n7LNtqtZWlq0ul-51" value="&lt;font style=&quot;font-size: 20px&quot;&gt;超声波雷达数据预处理&lt;/font&gt;" style="text;html=1;strokeColor=none;fillColor=none;align=center;verticalAlign=middle;whiteSpace=wrap;rounded=0;fontSize=18;" parent="PpEH4e9-SN8Gfu_vvwJx-2" vertex="1">
          <mxGeometry x="171.25" y="80" width="230" height="20" as="geometry" />
        </mxCell>
        <mxCell id="9fVTEGnAfYZDbj1msMhv-65" style="edgeStyle=orthogonalEdgeStyle;rounded=0;orthogonalLoop=1;jettySize=auto;html=1;entryX=0;entryY=0.5;entryDx=0;entryDy=0;entryPerimeter=0;" parent="PpEH4e9-SN8Gfu_vvwJx-2" source="VgWYN8n7LNtqtZWlq0ul-8" target="VgWYN8n7LNtqtZWlq0ul-43" edge="1">
          <mxGeometry relative="1" as="geometry">
            <mxPoint x="90" y="845" as="targetPoint" />
            <Array as="points">
              <mxPoint x="60" y="430" />
              <mxPoint x="60" y="1365" />
            </Array>
          </mxGeometry>
        </mxCell>
        <mxCell id="leuu1m-iNAbnX1D4mWZV-37" style="edgeStyle=orthogonalEdgeStyle;rounded=0;orthogonalLoop=1;jettySize=auto;html=1;entryX=0.5;entryY=0;entryDx=0;entryDy=0;entryPerimeter=0;" parent="PpEH4e9-SN8Gfu_vvwJx-2" source="VgWYN8n7LNtqtZWlq0ul-23" target="VgWYN8n7LNtqtZWlq0ul-43" edge="1">
          <mxGeometry x="160" y="45" as="geometry">
            <mxPoint x="596" y="400" as="targetPoint" />
          </mxGeometry>
        </mxCell>
        <mxCell id="9fVTEGnAfYZDbj1msMhv-66" style="edgeStyle=orthogonalEdgeStyle;rounded=0;orthogonalLoop=1;jettySize=auto;html=1;entryX=0;entryY=0.5;entryDx=0;entryDy=0;entryPerimeter=0;" parent="PpEH4e9-SN8Gfu_vvwJx-2" source="9fVTEGnAfYZDbj1msMhv-38" target="VgWYN8n7LNtqtZWlq0ul-43" edge="1">
          <mxGeometry relative="1" as="geometry">
            <Array as="points">
              <mxPoint x="60" y="682" />
              <mxPoint x="60" y="1365" />
            </Array>
          </mxGeometry>
        </mxCell>
        <mxCell id="9fVTEGnAfYZDbj1msMhv-38" value="雷达新数据入大小为250的左侧2号循环队列LeftRadarCQueueId2" style="rounded=0;whiteSpace=wrap;html=1;" parent="PpEH4e9-SN8Gfu_vvwJx-2" vertex="1">
          <mxGeometry x="240" y="652" width="136.25" height="60" as="geometry" />
        </mxCell>
        <mxCell id="9fVTEGnAfYZDbj1msMhv-39" value="" style="edgeStyle=orthogonalEdgeStyle;rounded=0;orthogonalLoop=1;jettySize=auto;html=1;" parent="PpEH4e9-SN8Gfu_vvwJx-2" source="9fVTEGnAfYZDbj1msMhv-41" target="9fVTEGnAfYZDbj1msMhv-38" edge="1">
          <mxGeometry x="156.8699999999999" y="312" as="geometry" />
        </mxCell>
        <mxCell id="9fVTEGnAfYZDbj1msMhv-40" value="左侧2号超声波是否有新数据" style="rhombus;whiteSpace=wrap;html=1;" parent="PpEH4e9-SN8Gfu_vvwJx-2" vertex="1">
          <mxGeometry x="406.25" y="462" width="170" height="111" as="geometry" />
        </mxCell>
        <mxCell id="9fVTEGnAfYZDbj1msMhv-62" style="edgeStyle=orthogonalEdgeStyle;rounded=0;orthogonalLoop=1;jettySize=auto;html=1;entryX=0;entryY=0.5;entryDx=0;entryDy=0;entryPerimeter=0;exitX=0.5;exitY=1;exitDx=0;exitDy=0;" parent="PpEH4e9-SN8Gfu_vvwJx-2" source="VgWYN8n7LNtqtZWlq0ul-22" target="VgWYN8n7LNtqtZWlq0ul-43" edge="1">
          <mxGeometry relative="1" as="geometry" />
        </mxCell>
        <mxCell id="9fVTEGnAfYZDbj1msMhv-41" value="将超声波数据转到全局坐标系(x,y,q,dim)" style="rounded=0;whiteSpace=wrap;html=1;" parent="PpEH4e9-SN8Gfu_vvwJx-2" vertex="1">
          <mxGeometry x="248.1199999999999" y="552" width="120" height="60" as="geometry" />
        </mxCell>
        <mxCell id="9fVTEGnAfYZDbj1msMhv-42" style="edgeStyle=orthogonalEdgeStyle;rounded=0;orthogonalLoop=1;jettySize=auto;html=1;entryX=0.45;entryY=0.001;entryDx=0;entryDy=0;entryPerimeter=0;" parent="PpEH4e9-SN8Gfu_vvwJx-2" source="9fVTEGnAfYZDbj1msMhv-40" target="9fVTEGnAfYZDbj1msMhv-41" edge="1">
          <mxGeometry x="226.8699999999999" y="342" as="geometry" />
        </mxCell>
        <mxCell id="9fVTEGnAfYZDbj1msMhv-44" value="&lt;font color=&quot;#FF0000&quot;&gt;真&lt;/font&gt;" style="text;html=1;strokeColor=none;fillColor=none;align=center;verticalAlign=middle;whiteSpace=wrap;rounded=0;" parent="PpEH4e9-SN8Gfu_vvwJx-2" vertex="1">
          <mxGeometry x="363.1199999999999" y="522" width="40" height="20" as="geometry" />
        </mxCell>
        <mxCell id="9fVTEGnAfYZDbj1msMhv-45" value="&lt;font color=&quot;#FF0000&quot;&gt;假&lt;/font&gt;" style="text;html=1;strokeColor=none;fillColor=none;align=center;verticalAlign=middle;whiteSpace=wrap;rounded=0;" parent="PpEH4e9-SN8Gfu_vvwJx-2" vertex="1">
          <mxGeometry x="481.25" y="572" width="40" height="20" as="geometry" />
        </mxCell>
        <mxCell id="9fVTEGnAfYZDbj1msMhv-67" style="edgeStyle=orthogonalEdgeStyle;rounded=0;orthogonalLoop=1;jettySize=auto;html=1;entryX=0;entryY=0.5;entryDx=0;entryDy=0;entryPerimeter=0;" parent="PpEH4e9-SN8Gfu_vvwJx-2" source="9fVTEGnAfYZDbj1msMhv-49" target="VgWYN8n7LNtqtZWlq0ul-43" edge="1">
          <mxGeometry relative="1" as="geometry">
            <Array as="points">
              <mxPoint x="60" y="1008" />
              <mxPoint x="60" y="1365" />
            </Array>
          </mxGeometry>
        </mxCell>
        <mxCell id="9fVTEGnAfYZDbj1msMhv-49" value="雷达新数据入大小为250的右侧1号循环队列RightRadarCQueueId1" style="rounded=0;whiteSpace=wrap;html=1;" parent="PpEH4e9-SN8Gfu_vvwJx-2" vertex="1">
          <mxGeometry x="198.75" y="978" width="142.5" height="60" as="geometry" />
        </mxCell>
        <mxCell id="9fVTEGnAfYZDbj1msMhv-50" value="" style="edgeStyle=orthogonalEdgeStyle;rounded=0;orthogonalLoop=1;jettySize=auto;html=1;" parent="PpEH4e9-SN8Gfu_vvwJx-2" source="9fVTEGnAfYZDbj1msMhv-51" target="9fVTEGnAfYZDbj1msMhv-49" edge="1">
          <mxGeometry x="160" y="-389" as="geometry" />
        </mxCell>
        <mxCell id="9fVTEGnAfYZDbj1msMhv-51" value="将超声波数据转到全局坐标系(x,y,q,dim)" style="rounded=0;whiteSpace=wrap;html=1;" parent="PpEH4e9-SN8Gfu_vvwJx-2" vertex="1">
          <mxGeometry x="210" y="846" width="120" height="60" as="geometry" />
        </mxCell>
        <mxCell id="9fVTEGnAfYZDbj1msMhv-58" style="edgeStyle=orthogonalEdgeStyle;rounded=0;orthogonalLoop=1;jettySize=auto;html=1;entryX=0.5;entryY=0;entryDx=0;entryDy=0;" parent="PpEH4e9-SN8Gfu_vvwJx-2" source="9fVTEGnAfYZDbj1msMhv-52" target="VgWYN8n7LNtqtZWlq0ul-23" edge="1">
          <mxGeometry relative="1" as="geometry" />
        </mxCell>
        <mxCell id="9fVTEGnAfYZDbj1msMhv-52" value="右侧1号超声波是否有新数据" style="rhombus;whiteSpace=wrap;html=1;" parent="PpEH4e9-SN8Gfu_vvwJx-2" vertex="1">
          <mxGeometry x="406.25" y="686" width="170" height="111" as="geometry" />
        </mxCell>
        <mxCell id="9fVTEGnAfYZDbj1msMhv-53" style="edgeStyle=orthogonalEdgeStyle;rounded=0;orthogonalLoop=1;jettySize=auto;html=1;entryX=0.5;entryY=0;entryDx=0;entryDy=0;" parent="PpEH4e9-SN8Gfu_vvwJx-2" source="9fVTEGnAfYZDbj1msMhv-52" target="9fVTEGnAfYZDbj1msMhv-51" edge="1">
          <mxGeometry x="230" y="-359" as="geometry" />
        </mxCell>
        <mxCell id="9fVTEGnAfYZDbj1msMhv-59" value="&lt;font color=&quot;#FF0000&quot;&gt;假&lt;/font&gt;" style="text;html=1;strokeColor=none;fillColor=none;align=center;verticalAlign=middle;whiteSpace=wrap;rounded=0;" parent="PpEH4e9-SN8Gfu_vvwJx-2" vertex="1">
          <mxGeometry x="481.25" y="805" width="40" height="20" as="geometry" />
        </mxCell>
        <mxCell id="9fVTEGnAfYZDbj1msMhv-60" value="&lt;font color=&quot;#FF0000&quot;&gt;假&lt;/font&gt;" style="text;html=1;strokeColor=none;fillColor=none;align=center;verticalAlign=middle;whiteSpace=wrap;rounded=0;" parent="PpEH4e9-SN8Gfu_vvwJx-2" vertex="1">
          <mxGeometry x="481.25" y="1176" width="40" height="49" as="geometry" />
        </mxCell>
        <mxCell id="9fVTEGnAfYZDbj1msMhv-63" value="&lt;font color=&quot;#FF0000&quot;&gt;真&lt;/font&gt;" style="text;html=1;strokeColor=none;fillColor=none;align=center;verticalAlign=middle;whiteSpace=wrap;rounded=0;" parent="PpEH4e9-SN8Gfu_vvwJx-2" vertex="1">
          <mxGeometry x="361.25" y="746" width="40" height="20" as="geometry" />
        </mxCell>
        <mxCell id="9fVTEGnAfYZDbj1msMhv-64" value="&lt;font color=&quot;#FF0000&quot;&gt;真&lt;/font&gt;" style="text;html=1;strokeColor=none;fillColor=none;align=center;verticalAlign=middle;whiteSpace=wrap;rounded=0;" parent="PpEH4e9-SN8Gfu_vvwJx-2" vertex="1">
          <mxGeometry x="361.25" y="1125" width="40" height="20" as="geometry" />
        </mxCell>
        <mxCell id="9fVTEGnAfYZDbj1msMhv-57" style="edgeStyle=orthogonalEdgeStyle;rounded=0;orthogonalLoop=1;jettySize=auto;html=1;" parent="PpEH4e9-SN8Gfu_vvwJx-2" source="9fVTEGnAfYZDbj1msMhv-40" target="9fVTEGnAfYZDbj1msMhv-52" edge="1">
          <mxGeometry relative="1" as="geometry" />
        </mxCell>
        <mxCell id="leuu1m-iNAbnX1D4mWZV-1" style="edgeStyle=orthogonalEdgeStyle;rounded=0;orthogonalLoop=1;jettySize=auto;html=1;entryX=0.5;entryY=0;entryDx=0;entryDy=0;" parent="1" source="VgWYN8n7LNtqtZWlq0ul-133" target="VgWYN8n7LNtqtZWlq0ul-207" edge="1">
          <mxGeometry relative="1" as="geometry" />
        </mxCell>
        <mxCell id="VgWYN8n7LNtqtZWlq0ul-133" value="&lt;div&gt;LocalParkingSport[j].type == 0/1/2&lt;/div&gt;&lt;div&gt;该库位为左侧库位&lt;br&gt;&lt;/div&gt;" style="rhombus;whiteSpace=wrap;html=1;fontSize=18;" parent="1" vertex="1">
          <mxGeometry x="3482.5" y="1430" width="330" height="224" as="geometry" />
        </mxCell>
        <mxCell id="VgWYN8n7LNtqtZWlq0ul-147" value="&lt;b&gt;&lt;font color=&quot;#FF3333&quot;&gt;真&lt;/font&gt;&lt;/b&gt;" style="text;html=1;strokeColor=none;fillColor=none;align=center;verticalAlign=middle;whiteSpace=wrap;rounded=0;fontSize=18;" parent="1" vertex="1">
          <mxGeometry x="3607.5" y="1666" width="40" height="60" as="geometry" />
        </mxCell>
        <mxCell id="VgWYN8n7LNtqtZWlq0ul-153" value="&lt;b&gt;&lt;font color=&quot;#FF0000&quot;&gt;假&lt;/font&gt;&lt;/b&gt;" style="text;html=1;strokeColor=none;fillColor=none;align=center;verticalAlign=middle;whiteSpace=wrap;rounded=0;fontSize=18;" parent="1" vertex="1">
          <mxGeometry x="3830" y="1480" width="40" height="80" as="geometry" />
        </mxCell>
        <mxCell id="PpEH4e9-SN8Gfu_vvwJx-9" style="edgeStyle=orthogonalEdgeStyle;rounded=0;orthogonalLoop=1;jettySize=auto;html=1;entryX=0;entryY=0.5;entryDx=0;entryDy=0;entryPerimeter=0;exitX=0.5;exitY=1;exitDx=0;exitDy=0;" edge="1" parent="1" source="VgWYN8n7LNtqtZWlq0ul-207" target="VgWYN8n7LNtqtZWlq0ul-214">
          <mxGeometry relative="1" as="geometry" />
        </mxCell>
        <mxCell id="VgWYN8n7LNtqtZWlq0ul-207" value="使用左侧超声波雷达进行障碍物检测" style="rounded=0;whiteSpace=wrap;html=1;fontSize=18;" parent="1" vertex="1">
          <mxGeometry x="3536.25" y="1748" width="222.5" height="130" as="geometry" />
        </mxCell>
        <mxCell id="PpEH4e9-SN8Gfu_vvwJx-10" style="edgeStyle=orthogonalEdgeStyle;rounded=0;orthogonalLoop=1;jettySize=auto;html=1;entryX=1;entryY=0.5;entryDx=0;entryDy=0;entryPerimeter=0;exitX=0.5;exitY=1;exitDx=0;exitDy=0;" edge="1" parent="1" source="VgWYN8n7LNtqtZWlq0ul-208" target="VgWYN8n7LNtqtZWlq0ul-214">
          <mxGeometry relative="1" as="geometry" />
        </mxCell>
        <mxCell id="VgWYN8n7LNtqtZWlq0ul-208" value="使用右侧超声波雷达进行障碍物检测" style="rounded=0;whiteSpace=wrap;html=1;fontSize=18;" parent="1" vertex="1">
          <mxGeometry x="4030" y="1748" width="230" height="130" as="geometry" />
        </mxCell>
        <mxCell id="VgWYN8n7LNtqtZWlq0ul-214" value="结束" style="strokeWidth=2;html=1;shape=mxgraph.flowchart.terminator;whiteSpace=wrap;fontSize=18;" parent="1" vertex="1">
          <mxGeometry x="3870" y="2000" width="100" height="52" as="geometry" />
        </mxCell>
        <mxCell id="VgWYN8n7LNtqtZWlq0ul-225" style="edgeStyle=orthogonalEdgeStyle;rounded=0;orthogonalLoop=1;jettySize=auto;html=1;fontSize=18;entryX=0.5;entryY=0;entryDx=0;entryDy=0;" parent="1" source="VgWYN8n7LNtqtZWlq0ul-133" target="VgWYN8n7LNtqtZWlq0ul-208" edge="1">
          <mxGeometry relative="1" as="geometry">
            <mxPoint x="4132.5" y="1860" as="targetPoint" />
          </mxGeometry>
        </mxCell>
        <mxCell id="PpEH4e9-SN8Gfu_vvwJx-12" style="edgeStyle=orthogonalEdgeStyle;rounded=0;orthogonalLoop=1;jettySize=auto;html=1;" edge="1" parent="1" source="PpEH4e9-SN8Gfu_vvwJx-3" target="PpEH4e9-SN8Gfu_vvwJx-5">
          <mxGeometry relative="1" as="geometry" />
        </mxCell>
        <mxCell id="PpEH4e9-SN8Gfu_vvwJx-3" value="&lt;div&gt;LocalParkingSport[j].maxX = LocalParkingSport[j].minX=0&lt;br&gt;LocalParkingSport[j].maxY = LocalParkingSport[j].minY=0&lt;br&gt; &lt;/div&gt;&lt;div&gt;没有计算该库位的最大外接矩形&lt;br&gt;&lt;/div&gt;" style="strokeWidth=2;html=1;shape=mxgraph.flowchart.decision;whiteSpace=wrap;" vertex="1" parent="1">
          <mxGeometry x="3472.5" y="1060" width="350" height="180" as="geometry" />
        </mxCell>
        <mxCell id="VgWYN8n7LNtqtZWlq0ul-151" value="&lt;b&gt;&lt;font color=&quot;#FF3333&quot;&gt;真&lt;/font&gt;&lt;/b&gt;" style="text;html=1;strokeColor=none;fillColor=none;align=center;verticalAlign=middle;whiteSpace=wrap;rounded=0;fontSize=18;" parent="1" vertex="1">
          <mxGeometry x="3730" y="1020" width="40" height="20" as="geometry" />
        </mxCell>
        <mxCell id="VgWYN8n7LNtqtZWlq0ul-146" value="&lt;b&gt;&lt;font color=&quot;#FF3333&quot;&gt;真&lt;/font&gt;&lt;/b&gt;" style="text;html=1;strokeColor=none;fillColor=none;align=center;verticalAlign=middle;whiteSpace=wrap;rounded=0;fontSize=18;" parent="1" vertex="1">
          <mxGeometry x="3587.51" y="990" width="40" height="20" as="geometry" />
        </mxCell>
        <mxCell id="PpEH4e9-SN8Gfu_vvwJx-4" style="edgeStyle=orthogonalEdgeStyle;rounded=0;orthogonalLoop=1;jettySize=auto;html=1;" edge="1" parent="1" source="VgWYN8n7LNtqtZWlq0ul-131" target="PpEH4e9-SN8Gfu_vvwJx-3">
          <mxGeometry relative="1" as="geometry" />
        </mxCell>
        <mxCell id="PpEH4e9-SN8Gfu_vvwJx-7" style="edgeStyle=orthogonalEdgeStyle;rounded=0;orthogonalLoop=1;jettySize=auto;html=1;entryX=0.5;entryY=0;entryDx=0;entryDy=0;" edge="1" parent="1" source="PpEH4e9-SN8Gfu_vvwJx-5" target="VgWYN8n7LNtqtZWlq0ul-133">
          <mxGeometry relative="1" as="geometry" />
        </mxCell>
        <mxCell id="PpEH4e9-SN8Gfu_vvwJx-5" value="&lt;div&gt;计算LocalParkingSport[j].maxX 、LocalParkingSport[j].minX、&lt;br&gt;LocalParkingSport[j].maxY、 LocalParkingSport[j].minY&lt;br&gt; &lt;/div&gt;" style="rounded=0;whiteSpace=wrap;html=1;" vertex="1" parent="1">
          <mxGeometry x="3460.75" y="1320" width="373.5" height="60" as="geometry" />
        </mxCell>
        <mxCell id="PpEH4e9-SN8Gfu_vvwJx-15" style="edgeStyle=orthogonalEdgeStyle;rounded=0;orthogonalLoop=1;jettySize=auto;html=1;" edge="1" parent="1" source="PpEH4e9-SN8Gfu_vvwJx-13" target="VgWYN8n7LNtqtZWlq0ul-66">
          <mxGeometry relative="1" as="geometry" />
        </mxCell>
        <mxCell id="PpEH4e9-SN8Gfu_vvwJx-19" style="edgeStyle=orthogonalEdgeStyle;rounded=0;orthogonalLoop=1;jettySize=auto;html=1;entryX=0;entryY=0.5;entryDx=0;entryDy=0;entryPerimeter=0;exitX=0;exitY=0.5;exitDx=0;exitDy=0;" edge="1" parent="1" source="PpEH4e9-SN8Gfu_vvwJx-13" target="37CJagWb4j1WNpY-bCI--48">
          <mxGeometry relative="1" as="geometry">
            <mxPoint x="10360" y="2290" as="targetPoint" />
            <Array as="points">
              <mxPoint x="10200" y="555" />
              <mxPoint x="10200" y="2127" />
            </Array>
          </mxGeometry>
        </mxCell>
        <mxCell id="PpEH4e9-SN8Gfu_vvwJx-13" value="&lt;div&gt;LocalParkingSport[j].ObjType == 0&lt;/div&gt;&lt;div&gt;该库位没有障碍物&lt;br&gt;&lt;/div&gt;" style="rhombus;whiteSpace=wrap;html=1;fontSize=18;" vertex="1" parent="1">
          <mxGeometry x="10555" y="480" width="330" height="150" as="geometry" />
        </mxCell>
        <mxCell id="VgWYN8n7LNtqtZWlq0ul-66" value="LeftRadarCQueueId1.PosX&amp;gt;=LocalParkingSport[j].minX&lt;br&gt;(当前车辆坐标X大于等于库位最小的x)" style="strokeWidth=2;html=1;shape=mxgraph.flowchart.decision;whiteSpace=wrap;fontSize=18;" parent="1" vertex="1">
          <mxGeometry x="10450" y="672" width="540" height="250" as="geometry" />
        </mxCell>
        <mxCell id="VgWYN8n7LNtqtZWlq0ul-77" value="i=0" style="rounded=0;whiteSpace=wrap;html=1;fontSize=18;" parent="1" vertex="1">
          <mxGeometry x="10660.33" y="1002" width="120" height="60" as="geometry" />
        </mxCell>
        <mxCell id="37CJagWb4j1WNpY-bCI--40" style="edgeStyle=orthogonalEdgeStyle;rounded=0;orthogonalLoop=1;jettySize=auto;html=1;entryX=0.5;entryY=0;entryDx=0;entryDy=0;fontSize=18;" parent="1" source="VgWYN8n7LNtqtZWlq0ul-66" target="VgWYN8n7LNtqtZWlq0ul-77" edge="1">
          <mxGeometry x="10270" y="402" as="geometry" />
        </mxCell>
        <mxCell id="PpEH4e9-SN8Gfu_vvwJx-20" style="edgeStyle=orthogonalEdgeStyle;rounded=0;orthogonalLoop=1;jettySize=auto;html=1;entryX=0;entryY=0.5;entryDx=0;entryDy=0;entryPerimeter=0;exitX=0;exitY=0.5;exitDx=0;exitDy=0;exitPerimeter=0;" edge="1" parent="1" source="VgWYN8n7LNtqtZWlq0ul-66" target="37CJagWb4j1WNpY-bCI--48">
          <mxGeometry relative="1" as="geometry">
            <mxPoint x="10600" y="2120" as="targetPoint" />
            <Array as="points">
              <mxPoint x="10260" y="797" />
              <mxPoint x="10260" y="2127" />
            </Array>
          </mxGeometry>
        </mxCell>
        <mxCell id="VgWYN8n7LNtqtZWlq0ul-86" value="i&amp;lt;250" style="strokeWidth=2;html=1;shape=mxgraph.flowchart.decision;whiteSpace=wrap;fontSize=18;" parent="1" vertex="1">
          <mxGeometry x="10625.33" y="1232" width="190" height="100" as="geometry" />
        </mxCell>
        <mxCell id="37CJagWb4j1WNpY-bCI--43" style="edgeStyle=orthogonalEdgeStyle;rounded=0;orthogonalLoop=1;jettySize=auto;html=1;fontSize=18;" parent="1" source="VgWYN8n7LNtqtZWlq0ul-99" edge="1">
          <mxGeometry x="10270" y="402" as="geometry">
            <mxPoint x="10720" y="1102" as="targetPoint" />
            <Array as="points">
              <mxPoint x="11080" y="1587" />
              <mxPoint x="11080" y="1102" />
            </Array>
          </mxGeometry>
        </mxCell>
        <mxCell id="PpEH4e9-SN8Gfu_vvwJx-21" style="edgeStyle=orthogonalEdgeStyle;rounded=0;orthogonalLoop=1;jettySize=auto;html=1;entryX=0;entryY=0.5;entryDx=0;entryDy=0;entryPerimeter=0;exitX=0;exitY=0.5;exitDx=0;exitDy=0;exitPerimeter=0;" edge="1" parent="1" source="VgWYN8n7LNtqtZWlq0ul-86" target="37CJagWb4j1WNpY-bCI--48">
          <mxGeometry relative="1" as="geometry">
            <mxPoint x="10560" y="2130" as="targetPoint" />
            <Array as="points">
              <mxPoint x="10320" y="1282" />
              <mxPoint x="10320" y="2127" />
            </Array>
          </mxGeometry>
        </mxCell>
        <mxCell id="VgWYN8n7LNtqtZWlq0ul-99" value="&lt;div&gt;LeftRadarCQueueId1[i].dim&amp;lt;=3.1&lt;/div&gt;&lt;div&gt;LeftRadarCQueueId1[i].x &amp;gt;= LocalParkingSport[j].CX-40&lt;br&gt;LeftRadarCQueueId1[i].x &amp;lt;= LocalParkingSport[j].CX+40&lt;br&gt;&lt;/div&gt;" style="strokeWidth=2;html=1;shape=mxgraph.flowchart.decision;whiteSpace=wrap;fontSize=18;" parent="1" vertex="1">
          <mxGeometry x="10410" y="1402" width="620" height="370" as="geometry" />
        </mxCell>
        <mxCell id="VgWYN8n7LNtqtZWlq0ul-116" style="edgeStyle=orthogonalEdgeStyle;rounded=0;orthogonalLoop=1;jettySize=auto;html=1;entryX=0.5;entryY=0;entryDx=0;entryDy=0;entryPerimeter=0;fontSize=18;" parent="1" source="VgWYN8n7LNtqtZWlq0ul-86" target="VgWYN8n7LNtqtZWlq0ul-99" edge="1">
          <mxGeometry x="10270" y="402" as="geometry" />
        </mxCell>
        <mxCell id="VgWYN8n7LNtqtZWlq0ul-129" value="&lt;div&gt;LocalParkingSport[j].ObjType = 1&lt;/div&gt;&lt;div&gt;标记该视觉本地库位有障碍物&lt;/div&gt;" style="rounded=0;whiteSpace=wrap;html=1;fontSize=18;" parent="1" vertex="1">
          <mxGeometry x="10515" y="1822" width="410" height="140" as="geometry" />
        </mxCell>
        <mxCell id="37CJagWb4j1WNpY-bCI--39" style="edgeStyle=orthogonalEdgeStyle;rounded=0;orthogonalLoop=1;jettySize=auto;html=1;entryX=0.5;entryY=0;entryDx=0;entryDy=0;fontSize=18;" parent="1" source="VgWYN8n7LNtqtZWlq0ul-99" target="VgWYN8n7LNtqtZWlq0ul-129" edge="1">
          <mxGeometry x="10270" y="402" as="geometry" />
        </mxCell>
        <mxCell id="PpEH4e9-SN8Gfu_vvwJx-14" style="edgeStyle=orthogonalEdgeStyle;rounded=0;orthogonalLoop=1;jettySize=auto;html=1;" edge="1" parent="1" source="37CJagWb4j1WNpY-bCI--27" target="PpEH4e9-SN8Gfu_vvwJx-13">
          <mxGeometry relative="1" as="geometry" />
        </mxCell>
        <mxCell id="37CJagWb4j1WNpY-bCI--27" value="&lt;font style=&quot;font-size: 18px&quot;&gt;使用左侧1号超声波雷达进行障碍物检测&lt;/font&gt;" style="strokeWidth=2;html=1;shape=mxgraph.flowchart.terminator;whiteSpace=wrap;labelBackgroundColor=none;labelBorderColor=none;fontSize=18;" parent="1" vertex="1">
          <mxGeometry x="10580.33" y="260" width="280" height="170" as="geometry" />
        </mxCell>
        <mxCell id="37CJagWb4j1WNpY-bCI--38" style="edgeStyle=orthogonalEdgeStyle;rounded=0;orthogonalLoop=1;jettySize=auto;html=1;entryX=0.5;entryY=0;entryDx=0;entryDy=0;entryPerimeter=0;fontSize=18;" parent="1" source="37CJagWb4j1WNpY-bCI--36" target="VgWYN8n7LNtqtZWlq0ul-86" edge="1">
          <mxGeometry x="10270" y="402" as="geometry" />
        </mxCell>
        <mxCell id="37CJagWb4j1WNpY-bCI--36" value="i=i+1" style="rounded=0;whiteSpace=wrap;html=1;fontSize=18;" parent="1" vertex="1">
          <mxGeometry x="10660.33" y="1132" width="120" height="60" as="geometry" />
        </mxCell>
        <mxCell id="37CJagWb4j1WNpY-bCI--37" style="edgeStyle=orthogonalEdgeStyle;rounded=0;orthogonalLoop=1;jettySize=auto;html=1;entryX=0.5;entryY=0;entryDx=0;entryDy=0;fontSize=18;" parent="1" source="VgWYN8n7LNtqtZWlq0ul-77" target="37CJagWb4j1WNpY-bCI--36" edge="1">
          <mxGeometry x="10270" y="402" as="geometry" />
        </mxCell>
        <mxCell id="37CJagWb4j1WNpY-bCI--48" value="结束" style="strokeWidth=2;html=1;shape=mxgraph.flowchart.terminator;whiteSpace=wrap;labelBackgroundColor=none;fontSize=18;" parent="1" vertex="1">
          <mxGeometry x="10600.33" y="2072" width="240" height="110" as="geometry" />
        </mxCell>
        <mxCell id="leuu1m-iNAbnX1D4mWZV-6" style="edgeStyle=orthogonalEdgeStyle;rounded=0;orthogonalLoop=1;jettySize=auto;html=1;entryX=0.5;entryY=0;entryDx=0;entryDy=0;entryPerimeter=0;" parent="1" source="VgWYN8n7LNtqtZWlq0ul-129" target="37CJagWb4j1WNpY-bCI--48" edge="1">
          <mxGeometry x="10270" y="402" as="geometry" />
        </mxCell>
        <mxCell id="37CJagWb4j1WNpY-bCI--55" value="&lt;font color=&quot;#FF0000&quot;&gt;真&lt;/font&gt;" style="text;html=1;strokeColor=none;fillColor=none;align=center;verticalAlign=middle;whiteSpace=wrap;rounded=0;labelBackgroundColor=none;fontSize=18;" parent="1" vertex="1">
          <mxGeometry x="10670" y="938" width="50" height="80" as="geometry" />
        </mxCell>
        <mxCell id="37CJagWb4j1WNpY-bCI--56" value="&lt;font color=&quot;#FF0000&quot;&gt;真&lt;/font&gt;" style="text;html=1;strokeColor=none;fillColor=none;align=center;verticalAlign=middle;whiteSpace=wrap;rounded=0;labelBackgroundColor=none;fontSize=18;" parent="1" vertex="1">
          <mxGeometry x="10710" y="1322" width="50" height="80" as="geometry" />
        </mxCell>
        <mxCell id="37CJagWb4j1WNpY-bCI--60" value="&lt;font color=&quot;#FF0000&quot;&gt;假&lt;br&gt;&lt;/font&gt;" style="text;html=1;strokeColor=none;fillColor=none;align=center;verticalAlign=middle;whiteSpace=wrap;rounded=0;labelBackgroundColor=none;fontSize=18;" parent="1" vertex="1">
          <mxGeometry x="10540.33" y="1220" width="40" height="94" as="geometry" />
        </mxCell>
        <mxCell id="37CJagWb4j1WNpY-bCI--61" value="&lt;font color=&quot;#FF0000&quot;&gt;假&lt;br&gt;&lt;/font&gt;" style="text;html=1;strokeColor=none;fillColor=none;align=center;verticalAlign=middle;whiteSpace=wrap;rounded=0;labelBackgroundColor=none;fontSize=18;" parent="1" vertex="1">
          <mxGeometry x="11040.33" y="1522" width="40" height="94" as="geometry" />
        </mxCell>
        <mxCell id="leuu1m-iNAbnX1D4mWZV-8" value="&lt;font color=&quot;#FF0000&quot;&gt;假&lt;br&gt;&lt;/font&gt;" style="text;html=1;strokeColor=none;fillColor=none;align=center;verticalAlign=middle;whiteSpace=wrap;rounded=0;labelBackgroundColor=none;fontSize=18;" parent="1" vertex="1">
          <mxGeometry x="10370" y="772" width="40" height="94" as="geometry" />
        </mxCell>
        <mxCell id="leuu1m-iNAbnX1D4mWZV-11" style="edgeStyle=orthogonalEdgeStyle;rounded=0;orthogonalLoop=1;jettySize=auto;html=1;" parent="1" source="leuu1m-iNAbnX1D4mWZV-12" edge="1">
          <mxGeometry x="12480" y="432" as="geometry">
            <mxPoint x="13810" y="2151.9999999999995" as="targetPoint" />
            <Array as="points">
              <mxPoint x="13560" y="817" />
              <mxPoint x="13560" y="2152" />
            </Array>
          </mxGeometry>
        </mxCell>
        <mxCell id="leuu1m-iNAbnX1D4mWZV-12" value="LeftRadarCQueueId1.PosX&amp;gt;=LocalParkingSport[j].minX&lt;br&gt;(当前车辆坐标X大于等于库位最小的x)" style="strokeWidth=2;html=1;shape=mxgraph.flowchart.decision;whiteSpace=wrap;fontSize=18;" parent="1" vertex="1">
          <mxGeometry x="13660" y="692" width="540" height="250" as="geometry" />
        </mxCell>
        <mxCell id="leuu1m-iNAbnX1D4mWZV-14" value="i=0" style="rounded=0;whiteSpace=wrap;html=1;fontSize=18;" parent="1" vertex="1">
          <mxGeometry x="13870.33" y="1022" width="120" height="60" as="geometry" />
        </mxCell>
        <mxCell id="leuu1m-iNAbnX1D4mWZV-10" style="edgeStyle=orthogonalEdgeStyle;rounded=0;orthogonalLoop=1;jettySize=auto;html=1;entryX=0.5;entryY=0;entryDx=0;entryDy=0;fontSize=18;" parent="1" source="leuu1m-iNAbnX1D4mWZV-12" target="leuu1m-iNAbnX1D4mWZV-14" edge="1">
          <mxGeometry x="12480" y="432" as="geometry" />
        </mxCell>
        <mxCell id="leuu1m-iNAbnX1D4mWZV-17" value="i&amp;lt;250" style="strokeWidth=2;html=1;shape=mxgraph.flowchart.decision;whiteSpace=wrap;fontSize=18;" parent="1" vertex="1">
          <mxGeometry x="13835.33" y="1252" width="190" height="100" as="geometry" />
        </mxCell>
        <mxCell id="leuu1m-iNAbnX1D4mWZV-19" style="edgeStyle=orthogonalEdgeStyle;rounded=0;orthogonalLoop=1;jettySize=auto;html=1;fontSize=18;" parent="1" source="leuu1m-iNAbnX1D4mWZV-20" edge="1">
          <mxGeometry x="12480" y="432" as="geometry">
            <mxPoint x="13930" y="1122" as="targetPoint" />
            <Array as="points">
              <mxPoint x="14290" y="1607" />
              <mxPoint x="14290" y="1122" />
            </Array>
          </mxGeometry>
        </mxCell>
        <mxCell id="leuu1m-iNAbnX1D4mWZV-20" value="&lt;div&gt;LeftRadarCQueueId1[i].dim&amp;lt;=3.1&lt;/div&gt;&lt;div&gt;LeftRadarCQueueId1[i].x &amp;gt;= LocalParkingSport[j].CX-40&lt;br&gt;LeftRadarCQueueId1[i].x &amp;lt;= LocalParkingSport[j].CX+40&lt;/div&gt;" style="strokeWidth=2;html=1;shape=mxgraph.flowchart.decision;whiteSpace=wrap;fontSize=18;" parent="1" vertex="1">
          <mxGeometry x="13620" y="1422" width="620" height="370" as="geometry" />
        </mxCell>
        <mxCell id="leuu1m-iNAbnX1D4mWZV-15" style="edgeStyle=orthogonalEdgeStyle;rounded=0;orthogonalLoop=1;jettySize=auto;html=1;entryX=0.5;entryY=0;entryDx=0;entryDy=0;entryPerimeter=0;fontSize=18;" parent="1" source="leuu1m-iNAbnX1D4mWZV-17" target="leuu1m-iNAbnX1D4mWZV-20" edge="1">
          <mxGeometry x="12480" y="432" as="geometry" />
        </mxCell>
        <mxCell id="leuu1m-iNAbnX1D4mWZV-22" value="&lt;div&gt;LocalParkingSport[j].ObjType = 1&lt;/div&gt;&lt;div&gt;标记该视觉本地库位有障碍物&lt;/div&gt;" style="rounded=0;whiteSpace=wrap;html=1;fontSize=18;" parent="1" vertex="1">
          <mxGeometry x="13725" y="1842" width="410" height="140" as="geometry" />
        </mxCell>
        <mxCell id="leuu1m-iNAbnX1D4mWZV-18" style="edgeStyle=orthogonalEdgeStyle;rounded=0;orthogonalLoop=1;jettySize=auto;html=1;entryX=0.5;entryY=0;entryDx=0;entryDy=0;fontSize=18;" parent="1" source="leuu1m-iNAbnX1D4mWZV-20" target="leuu1m-iNAbnX1D4mWZV-22" edge="1">
          <mxGeometry x="12480" y="432" as="geometry" />
        </mxCell>
        <mxCell id="PpEH4e9-SN8Gfu_vvwJx-18" style="edgeStyle=orthogonalEdgeStyle;rounded=0;orthogonalLoop=1;jettySize=auto;html=1;" edge="1" parent="1" source="leuu1m-iNAbnX1D4mWZV-24" target="PpEH4e9-SN8Gfu_vvwJx-16">
          <mxGeometry relative="1" as="geometry" />
        </mxCell>
        <mxCell id="leuu1m-iNAbnX1D4mWZV-24" value="&lt;font style=&quot;font-size: 18px&quot;&gt;使用右侧1号超声波雷达进行障碍物检测&lt;/font&gt;" style="strokeWidth=2;html=1;shape=mxgraph.flowchart.terminator;whiteSpace=wrap;labelBackgroundColor=none;labelBorderColor=none;fontSize=18;" parent="1" vertex="1">
          <mxGeometry x="13790.33" y="260" width="280" height="170" as="geometry" />
        </mxCell>
        <mxCell id="leuu1m-iNAbnX1D4mWZV-25" style="edgeStyle=orthogonalEdgeStyle;rounded=0;orthogonalLoop=1;jettySize=auto;html=1;entryX=0.5;entryY=0;entryDx=0;entryDy=0;entryPerimeter=0;fontSize=18;" parent="1" source="leuu1m-iNAbnX1D4mWZV-26" target="leuu1m-iNAbnX1D4mWZV-17" edge="1">
          <mxGeometry x="12480" y="432" as="geometry" />
        </mxCell>
        <mxCell id="leuu1m-iNAbnX1D4mWZV-26" value="i=i+1" style="rounded=0;whiteSpace=wrap;html=1;fontSize=18;" parent="1" vertex="1">
          <mxGeometry x="13870.33" y="1152" width="120" height="60" as="geometry" />
        </mxCell>
        <mxCell id="leuu1m-iNAbnX1D4mWZV-13" style="edgeStyle=orthogonalEdgeStyle;rounded=0;orthogonalLoop=1;jettySize=auto;html=1;entryX=0.5;entryY=0;entryDx=0;entryDy=0;fontSize=18;" parent="1" source="leuu1m-iNAbnX1D4mWZV-14" target="leuu1m-iNAbnX1D4mWZV-26" edge="1">
          <mxGeometry x="12480" y="432" as="geometry" />
        </mxCell>
        <mxCell id="leuu1m-iNAbnX1D4mWZV-27" value="结束" style="strokeWidth=2;html=1;shape=mxgraph.flowchart.terminator;whiteSpace=wrap;labelBackgroundColor=none;fontSize=18;" parent="1" vertex="1">
          <mxGeometry x="13810.33" y="2092" width="240" height="110" as="geometry" />
        </mxCell>
        <mxCell id="leuu1m-iNAbnX1D4mWZV-16" style="edgeStyle=orthogonalEdgeStyle;rounded=0;orthogonalLoop=1;jettySize=auto;html=1;entryX=-0.001;entryY=0.531;entryDx=0;entryDy=0;entryPerimeter=0;fontSize=18;exitX=0;exitY=0.5;exitDx=0;exitDy=0;exitPerimeter=0;" parent="1" source="leuu1m-iNAbnX1D4mWZV-17" target="leuu1m-iNAbnX1D4mWZV-27" edge="1">
          <mxGeometry x="12480" y="432" as="geometry">
            <Array as="points">
              <mxPoint x="13600" y="1302" />
              <mxPoint x="13600" y="2150" />
              <mxPoint x="13780" y="2150" />
            </Array>
          </mxGeometry>
        </mxCell>
        <mxCell id="leuu1m-iNAbnX1D4mWZV-21" style="edgeStyle=orthogonalEdgeStyle;rounded=0;orthogonalLoop=1;jettySize=auto;html=1;entryX=0.5;entryY=0;entryDx=0;entryDy=0;entryPerimeter=0;" parent="1" source="leuu1m-iNAbnX1D4mWZV-22" target="leuu1m-iNAbnX1D4mWZV-27" edge="1">
          <mxGeometry x="12480" y="432" as="geometry" />
        </mxCell>
        <mxCell id="leuu1m-iNAbnX1D4mWZV-28" value="&lt;font color=&quot;#FF0000&quot;&gt;真&lt;/font&gt;" style="text;html=1;strokeColor=none;fillColor=none;align=center;verticalAlign=middle;whiteSpace=wrap;rounded=0;labelBackgroundColor=none;fontSize=18;" parent="1" vertex="1">
          <mxGeometry x="13880" y="960" width="50" height="78" as="geometry" />
        </mxCell>
        <mxCell id="leuu1m-iNAbnX1D4mWZV-29" value="&lt;font color=&quot;#FF0000&quot;&gt;真&lt;/font&gt;" style="text;html=1;strokeColor=none;fillColor=none;align=center;verticalAlign=middle;whiteSpace=wrap;rounded=0;labelBackgroundColor=none;fontSize=18;" parent="1" vertex="1">
          <mxGeometry x="13920" y="1342" width="50" height="80" as="geometry" />
        </mxCell>
        <mxCell id="leuu1m-iNAbnX1D4mWZV-30" value="&lt;font color=&quot;#FF0000&quot;&gt;假&lt;br&gt;&lt;/font&gt;" style="text;html=1;strokeColor=none;fillColor=none;align=center;verticalAlign=middle;whiteSpace=wrap;rounded=0;labelBackgroundColor=none;fontSize=18;" parent="1" vertex="1">
          <mxGeometry x="13740" y="1242" width="40" height="94" as="geometry" />
        </mxCell>
        <mxCell id="leuu1m-iNAbnX1D4mWZV-31" value="&lt;font color=&quot;#FF0000&quot;&gt;假&lt;br&gt;&lt;/font&gt;" style="text;html=1;strokeColor=none;fillColor=none;align=center;verticalAlign=middle;whiteSpace=wrap;rounded=0;labelBackgroundColor=none;fontSize=18;" parent="1" vertex="1">
          <mxGeometry x="14250.33" y="1542" width="40" height="94" as="geometry" />
        </mxCell>
        <mxCell id="leuu1m-iNAbnX1D4mWZV-32" value="&lt;font color=&quot;#FF0000&quot;&gt;假&lt;br&gt;&lt;/font&gt;" style="text;html=1;strokeColor=none;fillColor=none;align=center;verticalAlign=middle;whiteSpace=wrap;rounded=0;labelBackgroundColor=none;fontSize=18;" parent="1" vertex="1">
          <mxGeometry x="13580" y="792" width="40" height="94" as="geometry" />
        </mxCell>
        <mxCell id="leuu1m-iNAbnX1D4mWZV-34" value="&lt;font style=&quot;font-size: 20px&quot;&gt;超声波障碍物检测&lt;/font&gt;" style="text;html=1;strokeColor=none;fillColor=none;align=center;verticalAlign=middle;whiteSpace=wrap;rounded=0;" parent="1" vertex="1">
          <mxGeometry x="13320" y="400" width="220" height="128" as="geometry" />
        </mxCell>
        <mxCell id="PpEH4e9-SN8Gfu_vvwJx-17" style="edgeStyle=orthogonalEdgeStyle;rounded=0;orthogonalLoop=1;jettySize=auto;html=1;entryX=0.5;entryY=0;entryDx=0;entryDy=0;entryPerimeter=0;" edge="1" parent="1" source="PpEH4e9-SN8Gfu_vvwJx-16" target="leuu1m-iNAbnX1D4mWZV-12">
          <mxGeometry relative="1" as="geometry" />
        </mxCell>
        <mxCell id="PpEH4e9-SN8Gfu_vvwJx-16" value="&lt;div&gt;LocalParkingSport[j].ObjType == 0&lt;/div&gt;&lt;div&gt;该库位没有障碍物&lt;br&gt;&lt;/div&gt;" style="rhombus;whiteSpace=wrap;html=1;fontSize=18;" vertex="1" parent="1">
          <mxGeometry x="13765.33" y="490" width="330" height="150" as="geometry" />
        </mxCell>
      </root>
    </mxGraphModel>
  </diagram>
</mxfile>
